<svg width="69" height="69" viewBox="0 0 69 69" fill="none" xmlns="http://www.w3.org/2000/svg">
<rect width="69" height="69" rx="34.5" fill="#008065"/>
<g clip-path="url(#clip0_171:768)">
<path d="M32.7842 64.5643C15.2497 64.5643 0.98584 50.3004 0.98584 32.7659C0.98584 15.2314 15.2497 0.985718 32.7842 0.985718C50.3187 0.985718 64.5826 15.2496 64.5826 32.7841C64.5826 37.9627 63.3106 43.1049 60.894 47.6657C60.6032 48.1927 59.9491 48.3925 59.4221 48.12C58.8952 47.8293 58.6953 47.1751 58.9679 46.6482C61.221 42.4145 62.4021 37.6174 62.4021 32.7841C62.4021 16.4488 49.1195 3.16618 32.7842 3.16618C16.4489 3.16618 3.1663 16.4488 3.1663 32.7841C3.1663 49.1194 16.4489 62.402 32.7842 62.402C40.4703 62.402 47.7567 59.4765 53.2987 54.1526C53.7348 53.7347 54.4253 53.7528 54.8432 54.1889C55.2611 54.625 55.2429 55.3155 54.8068 55.7334C48.8469 61.4208 41.0336 64.5643 32.7842 64.5643Z" fill="white"/>
<path d="M57.2962 52.6445C58.0288 52.6445 58.6226 52.0506 58.6226 51.318C58.6226 50.5854 58.0288 49.9916 57.2962 49.9916C56.5636 49.9916 55.9697 50.5854 55.9697 51.318C55.9697 52.0506 56.5636 52.6445 57.2962 52.6445Z" fill="white"/>
<path d="M49.0105 37.7628C49.392 37.8718 49.7918 37.781 50.0644 37.5084L58.3683 29.6043C58.659 29.3317 58.768 28.932 58.6772 28.5504L57.2417 22.645C57.1508 22.2634 56.8601 21.9545 56.4785 21.8455C56.097 21.7365 55.6972 21.8455 55.4065 22.118L51.736 25.7885C51.627 25.8975 51.518 25.9883 51.3726 26.0974C51.3363 26.1155 51.3181 26.1519 51.2818 26.1701L48.6834 28.6412L44.3225 27.3693L43.2504 22.9539L45.449 20.8643C45.5036 20.8098 45.5581 20.7552 45.5944 20.6826C45.7216 20.4827 45.8851 20.301 46.0487 20.1375L49.5374 16.6487C49.81 16.3762 49.919 15.9764 49.8281 15.613C49.7373 15.2314 49.4466 14.9407 49.0831 14.8317L44.1953 13.3962C43.8137 13.2872 43.4139 13.378 43.1414 13.6506L38.3262 18.2295C38.3444 18.1024 38.3625 17.957 38.3625 17.8298C38.3625 17.0666 38.0536 16.3216 37.4904 15.7947C35.3462 13.7414 32.4935 12.6149 29.459 12.6149C26.1883 12.6149 23.063 13.9595 20.8825 16.3216C20.4464 16.3943 20.0103 16.5942 19.6833 16.9213L13.5053 23.0992C12.7785 23.8261 12.6695 24.9526 13.1964 25.7885C13.1782 25.8066 13.1601 25.8066 13.1601 25.8248L11.5792 27.4056C11.5429 27.442 11.5247 27.4602 11.5065 27.4965C11.1976 27.3511 10.8887 27.2785 10.5617 27.2785C9.99839 27.2785 9.43511 27.4965 9.01719 27.9144L6.76405 30.1676C5.91003 31.0216 5.91003 32.4025 6.76405 33.2565L12.7967 39.3255C13.2146 39.7434 13.7779 39.9615 14.3411 39.9615C14.9044 39.9615 15.4677 39.7434 15.8856 39.3255L18.1388 37.0723C18.8838 36.3274 18.9746 35.1826 18.4295 34.3286C18.4477 34.3104 18.4477 34.3104 18.4658 34.2923L20.0467 32.7114C20.0649 32.6933 20.0649 32.6751 20.083 32.6751C20.4283 32.8931 20.828 33.0022 21.2459 33.0022C21.5185 33.0022 21.7729 32.9476 22.0273 32.8568L26.152 36.9815L20.1557 42.9778C17.8481 45.2854 17.8481 49.0285 20.1557 51.3362L20.5373 51.7178C21.682 52.8625 23.2083 53.444 24.7165 53.444C26.2247 53.444 27.751 52.8625 28.8957 51.7178L35.0373 45.5761L43.741 54.2798C44.2134 54.7522 44.8312 54.9885 45.449 54.9885C46.0668 54.9885 46.6846 54.7522 47.1571 54.2798L51.1546 50.2823C52.0994 49.3374 52.0994 47.7929 51.1546 46.8481L42.4509 38.1444L44.268 36.3274L49.0105 37.7628ZM33.5655 29.5679L29.4408 25.4432C29.7316 24.6619 29.568 23.7352 28.9502 23.1174L28.1144 22.2816C28.2234 22.2634 28.3324 22.2089 28.4233 22.1544C28.7867 21.9363 29.2046 21.8273 29.6225 21.8273C30.1677 21.8273 30.6764 22.009 31.0943 22.3361C31.6395 22.7722 32.2754 22.972 32.9296 22.972C33.4929 22.972 34.0561 22.8085 34.5467 22.4633C34.5467 22.4996 34.5649 22.536 34.5649 22.5723L35.7278 27.3693L33.5655 29.5679ZM36.0186 17.3755C36.1821 17.5209 36.2003 17.7026 36.2003 17.8116C36.2003 17.9752 36.1276 18.1387 36.0004 18.2659L33.3838 20.6462C33.1294 20.8824 32.7297 20.8824 32.439 20.6644C31.6395 20.0284 30.6401 19.6832 29.6044 19.6832C28.7867 19.6832 28.0054 19.9012 27.3149 20.301C27.0423 20.4645 26.8606 20.7189 26.8061 21.0096L23.063 17.2665C24.7892 15.722 27.0787 14.8317 29.459 14.8317C31.9302 14.7953 34.256 15.722 36.0186 17.3755ZM21.2096 18.4839C21.2096 18.4839 21.2278 18.4839 21.2096 18.4839L27.3331 24.5892C27.2785 24.6256 27.224 24.6801 27.1695 24.7164L21.2823 30.6037C21.2278 30.6582 21.1914 30.7127 21.1551 30.7672L15.0498 24.6619L21.2096 18.4839ZM14.3411 37.781L8.29037 31.7302L10.5435 29.4771L16.5943 35.5097L14.3411 37.781ZM16.9214 32.7659L13.1237 28.9683L14.7046 27.3875L18.5022 31.1851L16.9214 32.7659ZM23.6808 31.4577L28.0235 27.1149L32.021 31.1124L27.6783 35.4552L23.6808 31.4577ZM49.6101 48.4107C49.7009 48.5016 49.7009 48.6651 49.6101 48.756L45.6126 52.7535C45.5217 52.8443 45.3582 52.8443 45.2673 52.7535L36.5637 44.0498L40.9064 39.7071L49.6101 48.4107ZM43.1596 34.3649L27.3331 50.1914C25.8794 51.6451 23.5172 51.6451 22.0636 50.1914L21.682 49.8099C20.2284 48.3562 20.2284 45.9941 21.682 44.5404L37.7084 28.514C37.981 28.2415 38.09 27.8599 37.9991 27.4783L36.8362 22.6995L44.2316 15.6493L46.7573 16.3943L44.5769 18.5748C44.3406 18.811 44.1226 19.0654 43.9227 19.3379L41.3243 21.791C41.0336 22.0635 40.9246 22.4633 41.0154 22.8449L42.3782 28.4777C42.4691 28.8593 42.7598 29.15 43.1232 29.259L48.6834 30.8944C49.065 31.0034 49.4647 30.9126 49.7373 30.64L52.7354 27.7691C52.9171 27.6237 53.0988 27.4602 53.2442 27.3148L55.5337 25.0253L56.3695 28.4414L48.9741 35.4915L44.1953 34.0924C43.8682 33.9652 43.4503 34.0742 43.1596 34.3649Z" fill="white"/>
</g>
<defs>
<clipPath id="clip0_171:768">
<rect width="63.5786" height="63.5786" fill="white" transform="translate(0.98584 0.985718)"/>
</clipPath>
</defs>
</svg>
