<svg width="24" height="24" viewBox="0 0 24 24" fill="none" xmlns="http://www.w3.org/2000/svg">
<g clip-path="url(#clip0_171:629)">
<path d="M11.548 24C11.1122 24 10.6681 23.9738 10.224 23.9215C3.91391 23.1796 -0.644749 17.2276 0.0759215 10.6473C0.419497 7.46182 1.93626 4.608 4.34967 2.61818C6.76307 0.628363 9.76307 -0.279274 12.8217 0.0785444C14.5396 0.279272 16.1486 0.863999 17.6066 1.80654C18.1011 2.12073 18.2519 2.80145 17.9418 3.30764C17.6402 3.82255 16.9865 3.97964 16.5005 3.65673C15.3106 2.88 13.9865 2.40873 12.5871 2.24291C10.0815 1.94618 7.6262 2.688 5.64855 4.32C3.67927 5.952 2.43905 8.29091 2.15413 10.8916C1.86922 13.4924 2.58151 16.0582 4.14855 18.1178C5.71559 20.1687 7.9614 21.4604 10.4586 21.7571C12.9642 22.0538 15.4195 21.312 17.3972 19.68C19.3664 18.048 20.6066 15.7091 20.8916 13.1084C21.0675 11.4589 20.8497 9.78327 20.2379 8.256C20.0201 7.69745 20.2715 7.06036 20.8078 6.83345C21.3441 6.60655 21.9558 6.86836 22.1737 7.42691C22.9111 9.29455 23.1877 11.3455 22.9698 13.3615C22.6262 16.5469 21.1094 19.4007 18.696 21.3993C16.643 23.1011 14.1374 24 11.548 24Z" fill="black"/>
<path d="M11.5056 18.8771C11.4972 18.8771 11.4805 18.8771 11.4721 18.8771C11.0699 18.8597 10.7095 18.6153 10.5503 18.2313C8.59779 13.6408 4.72628 11.3804 4.69276 11.3542C4.18997 11.0662 4.00561 10.4029 4.28215 9.87058C4.55868 9.34694 5.19556 9.15494 5.70673 9.44294C5.86595 9.53894 9.20114 11.4851 11.5308 15.4822C13.5671 11.6946 18.5028 3.08076 22.3827 0.462577C22.8687 0.139668 23.514 0.279304 23.8324 0.785486C24.1509 1.29167 24.0084 1.96367 23.5224 2.2953C19.0559 5.30621 12.4944 18.1702 12.4274 18.2924C12.243 18.6502 11.8911 18.8771 11.5056 18.8771Z" fill="black"/>
</g>
<defs>
<clipPath id="clip0_171:629">
<rect width="24" height="24" fill="white"/>
</clipPath>
</defs>
</svg>
