<?xml version="1.0" encoding="UTF-8"?>
<svg xmlns="http://www.w3.org/2000/svg" xmlns:xlink="http://www.w3.org/1999/xlink" width="16px" height="16px" viewBox="0 0 16 16" version="1.1">
<g id="surface1">
<path style=" stroke:none;fill-rule:nonzero;fill:rgb(0%,0%,0%);fill-opacity:1;" d="M 7.699219 16 C 7.40625 16 7.113281 15.984375 6.816406 15.949219 C 2.609375 15.453125 -0.429688 11.484375 0.0507812 7.097656 C 0.28125 4.972656 1.289062 3.070312 2.898438 1.746094 C 4.507812 0.417969 6.507812 -0.1875 8.546875 0.0507812 C 9.691406 0.1875 10.765625 0.574219 11.738281 1.203125 C 12.066406 1.414062 12.167969 1.867188 11.960938 2.207031 C 11.761719 2.546875 11.324219 2.652344 11 2.4375 C 10.207031 1.921875 9.324219 1.605469 8.390625 1.496094 C 6.722656 1.296875 5.085938 1.792969 3.765625 2.878906 C 2.453125 3.96875 1.625 5.527344 1.4375 7.261719 C 1.246094 8.996094 1.722656 10.707031 2.765625 12.078125 C 3.808594 13.445312 5.308594 14.308594 6.972656 14.503906 C 8.644531 14.703125 10.28125 14.207031 11.597656 13.121094 C 12.910156 12.03125 13.738281 10.472656 13.925781 8.738281 C 14.046875 7.640625 13.898438 6.523438 13.492188 5.503906 C 13.347656 5.132812 13.515625 4.707031 13.871094 4.554688 C 14.230469 4.40625 14.636719 4.578125 14.78125 4.953125 C 15.273438 6.195312 15.457031 7.5625 15.3125 8.90625 C 15.085938 11.03125 14.074219 12.933594 12.464844 14.265625 C 11.09375 15.402344 9.425781 16 7.699219 16 Z M 7.699219 16 "/>
<path style=" stroke:none;fill-rule:nonzero;fill:rgb(0%,0%,0%);fill-opacity:1;" d="M 7.671875 12.585938 C 7.664062 12.585938 7.652344 12.585938 7.648438 12.585938 C 7.378906 12.574219 7.140625 12.410156 7.035156 12.152344 C 5.730469 9.09375 3.152344 7.585938 3.128906 7.570312 C 2.792969 7.378906 2.671875 6.933594 2.855469 6.582031 C 3.039062 6.230469 3.464844 6.101562 3.804688 6.296875 C 3.910156 6.359375 6.132812 7.65625 7.6875 10.320312 C 9.042969 7.796875 12.335938 2.054688 14.921875 0.308594 C 15.246094 0.09375 15.675781 0.1875 15.886719 0.523438 C 16.101562 0.859375 16.003906 1.308594 15.679688 1.53125 C 12.703125 3.539062 8.328125 12.113281 8.285156 12.195312 C 8.160156 12.433594 7.925781 12.585938 7.671875 12.585938 Z M 7.671875 12.585938 "/>
</g>
</svg>
