<svg width="140" height="140" viewBox="0 0 140 140" fill="none" xmlns="http://www.w3.org/2000/svg">
<rect width="140" height="140" rx="69" fill="#378AB6"/>
<path d="M86.8213 63.2257C86.8213 65.6036 86.8585 67.7585 86.8213 69.9134C86.7842 71.8825 86.2269 72.4398 84.2577 72.4769C81.0997 72.5141 77.9416 72.4769 74.7836 72.4769C73.4089 72.4769 71.9971 72.4398 71.8856 70.6564C71.7742 68.7988 73.2231 68.7244 74.5978 68.7244C74.8951 68.7244 75.1923 68.6873 75.7867 68.613C75.7867 67.3869 75.7496 66.2352 75.7867 65.0834C75.8239 63.9688 76.3069 63.1143 77.5329 63.0771C78.8705 63.04 79.3906 63.8945 79.4278 65.0834C79.4649 66.198 79.4278 67.3126 79.4278 68.5387C80.691 68.5387 81.7313 68.5387 82.8459 68.5387C82.8459 66.3095 83.1431 64.0431 82.7716 61.9254C82.2886 59.176 80.3566 57.3926 77.6816 56.501C72.2572 54.6804 72.2572 54.7176 69.9908 59.8819C69.5821 60.7736 69.322 61.7767 68.7647 62.557C68.356 63.1514 67.5758 63.783 66.9814 63.783C66.3869 63.783 65.4952 63.1514 65.198 62.557C64.1949 60.5878 63.3032 58.5444 62.5229 56.4638C62.0771 55.312 61.4455 55.1263 60.4052 55.4235C59.1048 55.795 57.7673 56.0551 56.4669 56.4638C53.086 57.5041 51.1168 60.0677 50.9682 63.5601C50.8939 65.1949 50.9682 66.8668 50.9682 68.613C52.1943 68.613 53.2346 68.613 54.5721 68.613C54.5721 67.4241 54.5349 66.2723 54.5721 65.1206C54.6093 63.9316 55.1294 63.0771 56.4669 63.0771C57.693 63.1143 58.176 63.9316 58.2131 65.0463C58.2503 66.198 58.2131 67.3498 58.2131 68.613C58.9562 68.6501 59.5507 68.5015 59.9222 68.7244C60.6653 69.1703 61.7427 69.7276 61.8913 70.4335C62.1514 71.6224 61.1854 72.3283 59.9594 72.4026C58.4732 72.4769 56.9871 72.4398 55.5009 72.4398C53.569 72.4398 51.6741 72.4769 49.7422 72.4398C47.773 72.4026 47.1786 71.8453 47.1414 69.9134C47.1043 67.7585 47.1414 65.6036 47.1414 63.1886C44.615 63.1886 42.2372 63.1886 39.8222 63.1886C37.11 63.1886 36.7384 62.8542 36.7756 60.0677C36.7756 58.6559 36.7013 57.1697 37.0357 55.8322C37.8159 52.5627 39.9336 50.4449 43.166 49.4789C44.3177 49.1446 45.5067 48.8473 46.9928 48.4758C46.3983 47.8442 45.9897 47.3984 45.6181 46.9897C42.3115 43.5715 42.0885 35.212 45.1723 31.6081C48.1446 28.1157 52.0457 27.707 56.8385 30.3449C63.266 21.5024 71.0682 21.5024 77.1243 30.3449C82.1771 27.707 85.9296 28.1529 88.9019 31.7567C89.1991 32.1283 89.4964 32.537 89.7193 32.9828C92.0228 37.1811 90.9825 44.3146 87.5644 47.7699C87.4529 47.8813 87.3786 48.0671 87.1185 48.513C87.9359 48.7359 88.6418 48.9588 89.3849 49.1446C95.5152 50.5935 98.6733 55.6464 97.0385 61.7767C96.8528 62.4084 95.6638 63.1514 94.8836 63.1886C92.32 63.3372 89.7193 63.2257 86.8213 63.2257ZM60.0708 38.7044C59.6621 43.9431 62.0771 47.324 66.3498 47.6956C71.2169 48.1043 75.118 44.3146 73.9291 38.3329C73.7433 37.3298 71.3655 36.7353 70.028 35.9922C67.2043 38.3701 63.7862 38.9274 60.0708 38.7044ZM77.6816 52.5998C82.0285 54.086 82.9945 54.8662 85.6696 58.7673C85.8925 59.0645 86.3012 59.4361 86.6355 59.4361C88.9019 59.5104 91.1683 59.4732 93.3975 59.4732C93.6947 55.312 92.4686 53.6773 88.679 52.7856C87.6015 52.5255 86.4869 52.3769 85.4466 51.9682C84.815 51.7453 83.9605 51.2252 83.8119 50.705C83.4775 49.3303 82.6973 49.2932 81.5827 49.5904C81.5827 52.1168 79.3535 51.8568 77.6816 52.5998ZM50.671 49.5533C50.5224 51.2252 49.6307 51.9311 48.1446 52.154C47.0671 52.3026 45.9897 52.637 44.9122 52.8971C41.5684 53.7516 40.2309 55.8693 40.8625 59.5104C42.9802 59.5104 45.1351 59.5475 47.29 59.4732C47.6616 59.4732 48.2189 59.2503 48.3303 58.9531C49.9651 55.5721 52.7144 53.6773 56.5412 52.5998C54.6093 51.9311 52.4915 52.0054 52.4915 49.5533C51.8227 49.5533 51.3397 49.5533 50.671 49.5533ZM73.9662 33.3915C72.9259 29.3418 69.4335 26.9639 65.8668 27.6699C62.2629 28.3758 59.7364 31.571 60.1823 34.9148C62.8945 35.212 65.4581 34.9519 67.6501 33.0571C69.9165 31.088 69.9165 31.088 72.4058 32.5741C72.8516 32.797 73.2975 33.02 73.9662 33.3915ZM77.9416 39.4475C77.6444 41.4538 77.9045 43.5344 79.9108 44.9462C81.4712 46.0237 83.1803 46.1351 84.7779 45.132C86.4869 44.0917 87.3043 42.5312 87.0071 40.5621C83.9605 40.1906 80.9882 39.819 77.9416 39.4475ZM47.1043 40.5621C46.5098 43.3858 49.2963 45.9122 51.7113 45.7636C54.8322 45.615 56.5412 43.1629 56.1325 39.4104C53.1603 39.819 50.188 40.1906 47.1043 40.5621ZM55.6495 35.5835C54.9065 33.1314 53.1603 32.0911 50.9682 32.3883C48.9248 32.6484 47.4015 34.3203 47.29 36.8468C50.0765 36.4381 52.8259 36.0294 55.6495 35.5835ZM87.0071 36.8468C86.5241 34.0603 85.038 32.5741 83.0317 32.3883C80.8768 32.2026 79.3163 33.1314 78.4246 35.6207C81.2854 36.0294 84.072 36.4381 87.0071 36.8468ZM64.5292 51.4481C65.3466 53.4915 66.0897 55.312 66.7956 57.1326C66.9442 57.1326 67.13 57.1326 67.2786 57.1326C67.9845 55.312 68.7276 53.4544 69.5078 51.4481C67.6501 51.4481 66.2754 51.4481 64.5292 51.4481ZM60.591 49.6276C59.4764 48.4015 58.6961 47.5841 58.0645 46.841C57.4329 47.324 56.8385 47.7699 55.9839 48.4387C57.6187 48.8845 58.8448 49.1817 60.591 49.6276ZM76.1583 46.7296C75.3037 47.6584 74.5978 48.4758 73.5575 49.6276C75.2666 49.1817 76.4555 48.8845 77.9045 48.513C77.2729 47.8442 76.7899 47.3612 76.1583 46.7296Z" fill="white"/>
<path d="M102.166 71.1765C102.166 70.2477 102.166 69.5789 102.166 68.9473C102.166 62.5198 102.129 56.0551 102.166 49.6275C102.203 45.9865 103.875 43.7944 106.959 43.0885C110.674 42.234 114.464 44.909 114.501 48.7358C114.612 58.953 114.612 69.1702 114.464 79.3874C114.426 82.5826 113.2 85.5549 111.343 88.1928C106.773 94.6575 102.203 101.085 97.5958 107.55C96.8156 108.627 95.9611 109.593 94.5864 108.553C93.2117 107.513 93.8433 106.398 94.6236 105.321C98.9334 99.2645 103.169 93.2085 107.516 87.1897C109.782 84.0688 110.86 80.6878 110.822 76.8238C110.748 67.7955 110.822 58.7673 110.785 49.7018C110.785 47.8813 109.708 46.6181 108.259 46.6552C106.81 46.6552 105.918 47.7327 105.807 49.5904C105.77 50.0733 105.807 50.5935 105.807 51.0765C105.807 57.3926 105.807 63.7087 105.807 70.0248C105.807 71.0651 105.732 72.1425 105.695 73.1828C105.51 76.2294 104.283 78.793 102.24 80.985C99.4535 83.9945 96.6299 86.9296 93.8433 89.9019C92.9145 90.905 91.8742 91.6109 90.6853 90.4592C89.5707 89.3817 90.2023 88.3043 91.094 87.3754C93.769 84.5518 96.4441 81.6909 99.1191 78.8673C100.234 77.6784 100.754 76.4151 99.9365 74.8547C99.1935 73.48 97.5959 72.8113 96.2955 73.6658C91.9857 76.4523 87.4901 78.9416 84.1463 82.9913C80.7653 87.1154 79.5021 92.0196 78.499 97.1096C77.8674 100.305 77.1986 103.537 76.5298 106.732C76.2698 107.996 75.8239 109.333 74.152 108.962C72.5916 108.627 72.5173 107.401 72.8516 106.026C74.2263 100.156 75.3038 94.1745 76.9757 88.3786C78.4247 83.4 81.6199 79.3874 85.781 76.2665C88.0103 74.5946 90.3509 73.0713 92.6544 71.5109C96.3326 68.9845 98.0045 68.9102 102.166 71.1765Z" fill="white"/>
<path d="M31.9085 71.3251C35.9583 68.2785 39.2278 69.6161 42.4601 72.1053C44.0206 73.2943 45.7296 74.3346 47.3644 75.4492C52.9374 79.4246 56.5041 84.7747 58.1017 91.388C59.2535 96.1808 60.108 101.048 61.1855 105.878C61.4827 107.253 61.4084 108.479 59.8479 108.813C58.2132 109.185 57.7673 107.847 57.5073 106.584C56.467 101.754 55.5381 96.9239 54.4235 92.0939C53.1603 86.6695 50.2252 82.2111 45.7668 78.9044C43.4261 77.1582 40.974 75.5978 38.5961 73.963C37.1843 72.997 35.8096 72.9227 34.5836 74.1859C33.3947 75.412 33.4318 77.1211 34.7322 78.5329C37.11 81.1336 39.5621 83.6601 41.9771 86.2608C42.4601 86.7438 42.906 87.264 43.3518 87.7841C44.0949 88.6386 44.2435 89.6046 43.3889 90.422C42.4601 91.3137 41.457 91.0908 40.6024 90.1991C37.4072 86.8181 34.1749 83.5115 31.0911 80.019C28.8619 77.4926 28.2303 74.3346 28.2303 71.0279C28.2303 64.3403 28.2303 57.6526 28.2303 50.965C28.2303 50.3334 28.2303 49.739 28.1932 49.1073C28.1189 47.5469 27.2272 46.6924 25.741 46.5809C24.4407 46.4695 23.2518 47.7327 23.2518 49.256C23.2518 59.1016 23.2146 68.9473 23.2889 78.793C23.3261 81.7652 24.5893 84.4031 26.3355 86.8181C27.2643 88.1185 28.1932 89.4189 29.122 90.7564C29.7908 91.7224 29.7536 92.837 28.7505 93.32C28.0817 93.6172 26.6327 93.4314 26.224 92.9113C22.1 87.8956 19.1649 82.5083 19.4621 75.5978C19.8336 66.8295 19.5364 58.0242 19.5736 49.2188C19.5736 45.875 21.6913 43.46 24.9608 42.9027C27.673 42.4197 30.6453 44.1288 31.537 46.8781C31.9085 47.9556 31.9457 49.1817 31.9457 50.3334C31.9828 56.538 31.9457 62.7055 31.9457 68.9101C31.9085 69.6161 31.9085 70.2477 31.9085 71.3251Z" fill="white"/>
<path d="M40.7139 106.955C39.9708 107.773 39.5621 108.516 38.9677 108.739C38.4475 108.925 37.4816 108.776 37.1472 108.367C35.9583 106.955 34.8808 105.432 33.9891 103.835C33.7291 103.389 33.9891 102.311 34.3607 101.865C34.695 101.494 35.9211 101.234 36.144 101.494C37.7045 103.166 39.1163 105.023 40.7139 106.955Z" fill="white"/>
<path d="M65.1981 17.0068C65.1981 16.5238 65.0123 15.8922 65.2352 15.5578C65.7182 14.8891 66.4241 13.9231 67.0557 13.9231C67.6873 13.9231 68.5047 14.8891 68.8019 15.595C69.0992 16.2638 68.8762 17.1554 68.8762 17.9728C68.8762 19.236 68.4304 20.202 67.0186 20.1649C65.5696 20.1649 65.1609 19.1989 65.1981 17.9357C65.1981 17.6384 65.1981 17.3412 65.1981 17.0068Z" fill="white"/>
<path d="M56.6156 17.4526C58.176 17.5641 60.7024 19.9048 60.6281 21.0194C60.591 21.6138 60.2194 22.3569 59.7365 22.6541C59.2906 22.9513 58.3246 22.9513 57.9159 22.6541C56.9871 21.9854 56.1326 21.1308 55.4638 20.202C55.1666 19.7562 55.1294 18.8645 55.3895 18.3443C55.6496 17.8613 56.3926 17.6013 56.6156 17.4526Z" fill="white"/>
<path d="M78.9076 19.1989C78.8705 20.4621 76.2326 23.1372 75.1551 23.0629C73.9291 22.9514 72.8888 22.0226 73.4461 21.0194C74.2263 19.6447 75.5267 18.3815 76.9385 17.6013C77.9788 17.044 78.8333 18.1215 78.9076 19.1989Z" fill="white"/>
<path d="M67.5016 68.5016C67.9474 69.2447 68.8391 69.9877 68.7648 70.6936C68.6905 71.3253 67.6502 72.3284 67.0557 72.3284C66.4613 72.3284 65.3838 71.3253 65.3467 70.6936C65.2723 70.0249 66.164 69.2447 66.6099 68.5387C66.9071 68.5016 67.2043 68.5016 67.5016 68.5016Z" fill="white"/>
<path d="M31.8342 95.1406C32.6516 96.3295 33.5804 97.1098 33.4689 97.6671C33.2832 98.4101 32.3172 98.9303 31.6484 99.5619C31.054 98.8931 30.1251 98.2615 30.0137 97.4813C29.9394 96.9612 30.9425 96.2552 31.8342 95.1406Z" fill="white"/>
<path d="M67.0186 133C31.1655 133 2 103.835 2 67.9814C2 32.1283 31.1655 3 67.0186 3C102.872 3 132.037 32.1655 132.037 68.0186C132.037 78.6073 129.436 89.1217 124.495 98.4473C123.901 99.5247 122.563 99.9334 121.486 99.3761C120.408 98.7817 119.999 97.4441 120.557 96.3667C125.164 87.7099 127.579 77.9014 127.579 68.0186C127.579 34.6176 100.42 7.45842 67.0186 7.45842C33.6176 7.45842 6.45842 34.6176 6.45842 68.0186C6.45842 101.42 33.6176 128.579 67.0186 128.579C82.7345 128.579 97.633 122.597 108.965 111.711C109.857 110.857 111.268 110.894 112.123 111.785C112.977 112.677 112.94 114.089 112.049 114.943C99.8622 126.572 83.8862 133 67.0186 133Z" fill="white"/>
<path d="M117.25 108.962C118.748 108.962 119.962 107.747 119.962 106.25C119.962 104.752 118.748 103.537 117.25 103.537C115.752 103.537 114.538 104.752 114.538 106.25C114.538 107.747 115.752 108.962 117.25 108.962Z" fill="white"/>
</svg>
