<svg width="140" height="140" viewBox="0 0 140 140" fill="none" xmlns="http://www.w3.org/2000/svg">
<rect width="140" height="140" rx="68" fill="#D1274B"/>
<path d="M108.556 95.8125C107.999 95.6639 107.367 95.5524 106.587 95.5524C106.401 95.5524 106.178 95.5524 105.955 95.5524C105.918 95.5524 105.881 95.5524 105.844 95.5524C105.212 95.5524 104.989 95.3295 104.767 94.6607C103.912 91.9857 103.838 89.2363 104.618 86.3012C104.878 85.2981 105.25 84.9265 106.067 84.9265C106.141 84.9265 106.253 84.9265 106.327 84.9265C106.476 84.9265 106.661 84.9637 106.81 84.9637C107.516 84.9637 108.296 84.8151 108.965 84.555C111.083 83.7376 112.309 81.3598 111.863 79.0563C111.417 76.6785 109.522 75.0809 107.219 75.0437C106.178 75.0066 105.101 75.0066 103.763 75.0066C102.872 75.0066 102.017 75.0066 101.163 75.0066C100.605 75.0066 100.085 75.0066 99.5279 75.0066C99.4164 75.0066 99.3421 74.9322 99.3049 74.8951C99.2306 74.8208 99.2306 74.7093 99.2678 74.635C99.3421 74.3378 99.4536 74.0777 99.5279 73.8176C99.8994 72.6287 100.234 71.477 100.271 70.2881C100.42 65.421 100.457 60.5539 100.308 55.7982C100.159 51.0054 97.0014 47.8845 92.2086 47.8102C91.8371 47.8102 91.4284 47.8102 91.0569 47.8102C90.7225 47.8102 90.3881 47.8102 90.0537 47.8102H89.7937C89.6822 47.8102 89.6079 47.7359 89.6079 47.7359C89.5336 47.6616 89.5336 47.5873 89.5336 47.4758C89.7565 45.3209 89.3478 43.5004 88.3447 42.3858C87.6016 41.5684 86.5985 41.0854 85.4095 41.0483C83.6262 40.974 83.2918 40.1937 83.2546 38.4847C83.2175 37.0357 83.329 35.5867 83.6262 34.1006C83.6633 33.8405 84.2578 33.3575 84.6293 33.3204C88.0103 32.8745 89.868 30.8682 89.7194 27.7845C89.5707 24.8865 87.4901 23.1031 84.2578 23.1031C79.7622 23.1031 75.2667 23.1031 70.7711 23.1031C66.4984 23.1031 62.1886 23.1031 57.916 23.1031H57.5816C56.0955 23.1031 54.5722 23.1031 53.1232 23.1031C51.6742 23.1031 50.1509 23.1031 48.6648 23.1031V23.2889V23.1031C45.5439 23.1031 43.1661 23.1403 40.8997 23.2146C37.2958 23.3261 33.952 25.1466 31.537 28.1189C28.9734 31.3512 27.8217 35.5496 28.5276 39.3764C29.122 42.4973 30.4967 45.1352 32.8002 47.4387C32.8745 47.513 32.9117 47.6244 32.8745 47.7359C32.8745 47.7731 32.8002 47.9217 32.6888 47.9588C30.8311 48.4418 29.4564 49.445 28.7877 50.8568C28.1932 52.0829 28.2304 53.5318 28.862 54.9065C29.7165 56.8013 31.2026 57.7673 33.1346 57.7673C33.3575 57.7673 33.5433 57.7673 33.7662 57.7302C33.9148 57.7302 34.0263 57.693 34.1378 57.693C35.0666 57.693 35.5124 58.1389 35.7725 59.3278C36.4041 62.1143 36.367 64.715 35.6239 67.2043C35.3638 68.1332 35.0294 68.3561 34.1006 68.3932C31.9086 68.3932 30.2366 69.062 29.3078 70.3252C28.379 71.5884 28.2304 73.409 28.8991 75.601C28.9363 75.7496 28.8991 75.8982 28.7877 75.9354C25.8154 77.6445 24.515 80.5053 24.7008 84.9637C24.8122 87.6759 24.7751 90.4252 24.7379 93.1003C24.7379 94.5121 24.7008 95.9611 24.7379 97.373C24.7379 98.1903 24.8494 98.9705 25.0352 99.6393C26.0755 103.392 28.9363 105.472 33.1346 105.472C45.1352 105.472 57.1358 105.472 69.1363 105.472H92.3572H106.253H106.327H106.364C106.698 105.472 107.07 105.472 107.479 105.435C109.782 105.249 111.603 103.503 111.937 101.2C112.16 98.8591 110.711 96.4813 108.556 95.8125ZM61.8914 29.7908C61.6685 29.7908 61.3341 29.8279 61.074 29.9765C60.5167 30.3109 59.9594 30.9425 59.8851 31.5741C59.8108 32.2058 60.591 32.8745 61.0369 33.1346C61.3341 33.2832 61.6685 33.3204 61.9286 33.3204C62.0772 33.3204 62.1886 33.3204 62.3372 33.3204C62.4487 33.3204 62.5973 33.3204 62.7088 33.3204C65.7554 33.3204 68.8391 33.3204 71.8857 33.3204H75.2667H78.6476H78.7591H79.7622C79.9108 33.3204 80.0595 33.469 80.0595 33.6176V40.6396C80.0595 40.7882 79.948 40.9368 79.7994 40.9368C79.6508 40.9368 79.5393 40.9368 79.4278 40.9368C76.8271 40.9368 74.2264 40.9368 71.6256 40.9368H67.353H63.0803C55.4267 40.9368 48.9991 40.9368 42.4601 40.9368C40.6396 40.9368 39.4136 40.1937 38.6705 38.6705C37.9274 37.1472 38.1503 35.661 39.2649 34.6207C40.0823 33.8777 41.2712 33.3575 42.2744 33.3204C43.7605 33.246 45.3953 33.2089 47.4015 33.2089C48.4418 33.2089 49.4821 33.2089 50.5224 33.2089C51.5627 33.2089 52.603 33.2089 53.6433 33.2089H53.7548C53.8663 33.2089 54.0149 33.2089 54.1263 33.246C54.2749 33.246 54.4236 33.2832 54.5722 33.2832C54.8694 33.2832 55.0923 33.246 55.2781 33.1346C55.6496 32.9117 55.9468 32.6144 56.2812 32.2429C56.6528 31.8342 56.6528 31.2026 56.2812 30.8311C55.984 30.5338 55.6868 30.1995 55.3895 29.9394C55.2038 29.7908 54.9809 29.7908 54.9065 29.7908C54.8322 29.7908 54.7579 29.7908 54.6465 29.7908C54.5722 29.7908 54.535 29.7908 54.4607 29.7908C53.2346 29.7908 52.0457 29.7908 50.8197 29.7908C49.5936 29.7908 48.3675 29.7908 47.1415 29.7908C45.2095 29.7908 43.6119 29.7908 42.1258 29.8279C38.6333 29.9022 35.6239 32.4287 35.1409 35.7353C34.5836 39.4878 36.4041 42.7573 39.7108 43.8348C40.974 44.2435 42.3858 44.3178 43.3147 44.3178C51.5256 44.3178 59.7365 44.3549 66.7214 44.3549H73.9663H81.2112H83.2918C86.004 44.3549 86.3755 45.1723 86.3755 46.0268C86.3755 46.4727 86.2641 46.8442 85.9669 47.1043C85.4839 47.5873 84.5922 47.8102 83.329 47.8102H73.409C69.1363 47.8102 64.8637 47.8102 60.591 47.8102C54.6093 47.8102 48.6648 47.8102 42.6831 47.8102C37.816 47.8102 34.3978 45.6182 32.503 41.3084C31.054 37.9645 31.3884 34.1377 33.3947 31.054C35.2895 28.1189 38.2989 26.447 41.6428 26.4098C46.9557 26.3727 52.6773 26.3355 59.625 26.3355C64.1578 26.3355 68.7648 26.3355 73.2232 26.3727C76.8643 26.3727 80.5053 26.3727 84.1835 26.4098C84.9266 26.4098 85.521 26.6327 85.9297 27.0043C86.2269 27.3015 86.3755 27.7102 86.3755 28.156C86.3755 29.605 84.9637 29.8279 84.1463 29.8279C80.3195 29.8279 76.5299 29.8279 72.7031 29.8279H70.6968H68.6905C66.7214 29.8279 64.7151 29.8279 62.7459 29.8279C62.6345 29.8279 62.4859 29.8279 62.3372 29.8279C62.1886 29.8279 62.04 29.7908 61.8914 29.7908ZM57.0986 65.1609V85.5581C57.0986 85.7439 56.95 85.8554 56.8014 85.8554C56.7271 85.8554 56.6899 85.8182 56.6156 85.7811C56.4298 85.6325 56.2812 85.4838 56.1326 85.3352C54.8694 84.1092 54.2378 83.5147 53.4947 83.5147C52.7517 83.5147 52.0829 84.1463 50.8197 85.4467C50.6711 85.5953 50.5224 85.7068 50.411 85.8554C50.3738 85.8925 50.2995 85.9297 50.2252 85.9297C50.1138 85.9297 49.928 85.8182 49.928 85.6325V65.198C49.928 65.0494 50.0394 64.9008 50.2252 64.9008H56.8385C56.9871 64.8637 57.0986 64.9751 57.0986 65.1609ZM88.902 57.7673C89.645 57.7673 90.0909 57.8788 90.3138 58.1017C90.5367 58.3246 90.611 58.7705 90.5739 59.5136C90.4624 61.7056 90.4996 63.972 90.5367 66.1269C90.5367 66.5356 90.5367 66.9442 90.5739 67.3529C90.5739 67.7988 90.5367 68.096 90.3881 68.2075C90.2766 68.3189 90.0537 68.3932 89.7565 68.3932C83.2918 68.3561 76.7156 68.3561 70.3624 68.3561C67.1672 68.3561 63.972 68.3561 60.7768 68.3561C60.7396 68.3561 60.7396 68.3189 60.7025 68.3189V65.0494C60.7025 64.9008 60.814 64.7522 60.9997 64.7522H62.6716C63.4147 64.7522 64.1578 64.7522 64.9008 64.7522C66.0526 64.7522 67.1672 64.7522 68.319 64.7522H68.4676C69.0992 64.7522 69.8422 64.715 70.2881 64.2692C70.5482 64.0091 70.6968 63.6004 70.6968 63.1174C70.6968 61.4827 69.1735 61.4827 68.3561 61.4827H68.319C67.3158 61.4827 66.3498 61.4827 65.3467 61.4827C63.5633 61.4827 61.8171 61.4827 60.0337 61.4827C58.2504 61.4827 56.5041 61.4827 54.7208 61.4827C50.7825 61.4827 46.1012 61.4827 41.3084 61.5198H41.1969C40.3052 61.5198 39.8594 61.4084 39.5993 61.1483C39.3764 60.8882 39.2649 60.4795 39.2649 59.8108C39.2649 59.2906 39.1163 58.7333 38.9677 58.2503C38.9306 58.1389 38.9677 58.0646 39.0049 57.9531C39.042 57.916 39.1163 57.8416 39.2278 57.8416H40.1566C43.7234 57.8416 47.2901 57.8416 50.8568 57.8416C54.4236 57.8416 57.9903 57.8416 61.557 57.8416C69.545 57.8045 79.0563 57.8045 88.902 57.7673ZM40.5653 64.7522C41.3827 64.715 42.2744 64.715 43.4261 64.715C43.9834 64.715 44.5407 64.715 45.1352 64.715C45.5067 64.715 45.8783 64.715 46.2869 64.715C46.4356 64.715 46.5842 64.8637 46.5842 65.0123V67.9102C46.5842 68.0589 46.4727 68.2075 46.2869 68.2075H39.1535C39.042 68.2075 38.9677 68.1332 38.9306 68.096C38.8563 68.0217 38.8563 67.9474 38.8563 67.8359L38.8934 67.6502C39.0049 67.0186 39.1163 66.4241 39.2278 65.8296C39.3764 65.2723 40.008 64.7522 40.5653 64.7522ZM86.1898 81.6942C86.0783 81.6942 85.9297 81.6942 85.8182 81.6942C85.6696 81.6942 85.521 81.6942 85.3724 81.6942C85.2981 81.6942 85.2609 81.6942 85.1866 81.6942C85.0752 81.6942 84.9637 81.6942 84.8522 81.6942C84.7408 81.6942 84.6293 81.6942 84.5179 81.6942C83.9606 81.6942 83.3661 81.7685 82.9574 82.14C82.6973 82.4372 82.5487 82.8459 82.5487 83.3661C82.5859 85.0008 83.9977 85.0008 84.4436 85.0008C84.6293 85.0008 84.7779 85.0008 84.9637 85.0008C85.1123 85.0008 85.2609 85.0008 85.4095 85.0008H85.4467C87.3044 85.0008 89.3107 85.0008 91.8743 85.0008C93.0632 85.0008 94.2892 85.0008 95.4781 85.0008C96.6671 85.0008 97.8931 85.0008 99.082 85.0008C99.082 85.0008 99.082 85.0008 99.1192 85.0008H101.125C101.237 85.0008 101.311 85.0751 101.348 85.1123C101.423 85.1866 101.423 85.2981 101.386 85.3724C100.42 88.8648 100.42 92.0228 101.386 95.0323C101.423 95.1437 101.386 95.218 101.348 95.3295C101.311 95.3667 101.237 95.441 101.125 95.441H34.8437C34.6951 95.441 34.5464 95.2924 34.5464 95.1437V85.4838C34.5464 85.3352 34.6579 85.1866 34.8437 85.1866H46.3241C46.3984 85.1866 46.4727 85.2238 46.5099 85.2609C46.5842 85.3352 46.5842 85.4095 46.5842 85.4838C46.5842 85.6696 46.5842 85.8554 46.5842 86.0411C46.547 87.0443 46.547 88.0846 46.6585 89.1249C46.7328 89.7936 47.1415 90.9082 47.8102 91.2055C47.9589 91.2798 48.1446 91.3169 48.3675 91.3169C48.9248 91.3169 49.6308 91.0569 50.1138 90.6853C51.0426 89.9423 51.8971 89.0877 52.7517 88.2332C52.9374 88.0474 53.1232 87.8617 53.3461 87.6759C53.3833 87.6387 53.4576 87.6016 53.5319 87.6016C53.6062 87.6016 53.6805 87.6387 53.7176 87.6759C53.9406 87.8617 54.1263 88.0846 54.3492 88.2703C55.2409 89.1249 56.0583 89.9423 56.9871 90.6853C57.433 91.0569 58.1389 91.2798 58.6962 91.2798C58.9191 91.2798 59.142 91.2426 59.2907 91.1683C59.9966 90.8339 60.4053 89.7193 60.4796 89.0506C60.591 88.0846 60.5539 87.0814 60.5539 86.004C60.5539 85.7811 60.5539 85.521 60.5539 85.2609C60.5539 85.1866 60.591 85.1123 60.6282 85.038C60.6653 85.0008 60.7396 84.9637 60.814 84.9637H62.0772H62.1143C63.3404 84.9637 64.6036 84.9637 65.8297 84.9637C67.0557 84.9637 68.319 84.9637 69.545 84.9637C72.443 84.9637 74.6722 84.9637 76.7156 84.9265H76.7528C76.9014 84.9265 77.05 84.9265 77.1986 84.9637C77.3844 84.9637 77.5702 85.0008 77.7559 85.0008C78.1646 85.0008 79.4278 85.0008 79.4278 83.3661C79.4278 82.7716 79.2792 82.3629 78.982 82.0657C78.6105 81.6942 78.0532 81.6199 77.6445 81.6199C77.4587 81.6199 77.2729 81.6199 77.1243 81.657C76.9757 81.657 76.8271 81.657 76.6785 81.657C74.5979 81.657 72.443 81.657 69.6193 81.657C68.3561 81.657 67.0929 81.657 65.7925 81.657C64.5293 81.657 63.2661 81.657 61.9657 81.657H61.9286H60.8511C60.7025 81.657 60.5539 81.5084 60.5539 81.3598V78.5733C60.5539 78.4247 60.6653 78.2761 60.8511 78.2761H61.2598H61.6685H62.0772H62.5973H68.5047H74.4121C84.8151 78.2761 95.2181 78.2761 105.621 78.2761C105.732 78.2761 105.807 78.2761 105.918 78.2761C106.03 78.2761 106.104 78.2761 106.215 78.2761C106.55 78.2761 106.884 78.2761 107.219 78.3875C107.739 78.5361 108.185 78.7962 108.37 79.1677C108.519 79.4278 108.556 79.725 108.445 80.0594C108.259 80.6539 107.516 81.2112 106.921 81.657L106.884 81.6942C106.884 81.6942 106.81 81.7313 106.624 81.7313C106.513 81.7313 106.364 81.7313 106.215 81.6942C106.067 81.6942 105.918 81.657 105.77 81.657C101.831 81.657 97.8931 81.657 93.992 81.657H90.2767H86.5613C86.4127 81.6942 86.3012 81.6942 86.1898 81.6942ZM96.9643 69.6193C96.9643 72.5544 94.6236 74.9694 91.7628 75.0066C88.0846 75.0066 84.1835 75.0437 79.5022 75.0437C75.7868 75.0437 72.0715 75.0437 68.3561 75.0437C65.8297 75.0437 63.3404 75.0437 60.814 75.0437C60.7025 75.0437 60.591 74.8951 60.591 74.7465V71.9971C60.591 71.8485 60.7025 71.6999 60.8883 71.6999H62.1143H62.523H69.8422H77.1615C81.2484 71.6999 85.3724 71.6999 89.4593 71.6999C92.8031 71.6999 93.7691 70.6968 93.7691 67.2043V66.4613C93.7691 63.8977 93.7691 61.2598 93.7691 58.6962C93.7691 55.6496 92.6916 54.5721 89.7565 54.5721C79.6879 54.5721 69.6193 54.5721 59.5507 54.5721H52.4173H45.2838H34.7322C33.3575 54.5721 32.503 54.3492 32.0943 53.9034C31.8342 53.6433 31.7228 53.2718 31.7599 52.7888C31.7971 51.8228 32.3172 51.154 34.7322 51.154H41.5313H64.6408C73.5576 51.154 82.5116 51.154 91.4284 51.154C95.3667 51.154 97.0014 52.8259 97.0014 56.9128C97.0014 58.1389 97.0014 59.3649 97.0014 60.591C96.9643 63.5261 96.9643 66.6099 96.9643 69.6193ZM46.5099 71.96V74.7093C46.5099 74.8579 46.3984 75.0066 46.2126 75.0066C45.1723 75.0066 44.132 75.0066 43.1289 75.0066C41.9028 75.0066 40.6768 75.0066 39.4507 75.0066C36.9614 75.0066 34.9923 75.0066 33.1718 74.9694C32.7259 74.9694 32.3915 74.8208 32.1315 74.5236C31.8342 74.2263 31.7228 73.7805 31.7599 73.2603C31.8342 72.22 32.4287 71.6627 33.5433 71.6627C35.5124 71.6627 37.4816 71.6627 39.4879 71.6627C40.6768 71.6627 41.9028 71.6627 43.1289 71.6627H46.2498C46.3984 71.6627 46.5099 71.8114 46.5099 71.96ZM38.6333 78.3132C39.9709 78.3132 41.3455 78.3132 42.7202 78.3132C43.9091 78.3132 45.098 78.3132 46.2869 78.3132C46.4356 78.3132 46.5842 78.4618 46.5842 78.6104V81.397C46.5842 81.4713 46.547 81.5456 46.5099 81.6199C46.4727 81.657 46.3984 81.6942 46.3241 81.6942H45.7668H45.098H44.9494C43.9834 81.6942 43.0174 81.6942 42.0515 81.6942C41.0855 81.6942 40.1195 81.6942 39.1535 81.6942C37.4073 81.6942 35.9954 81.6942 34.6579 81.6942C32.5402 81.7313 31.2026 83.0689 31.1655 85.1866C31.1283 88.4561 31.1283 91.8371 31.1655 95.2924C31.2026 97.5587 32.5402 98.8219 34.918 98.8219C39.0792 98.8219 43.2404 98.8219 47.4015 98.8219H53.9777H60.5539H60.7396H66.87H70.7339C82.363 98.8219 93.992 98.8219 105.658 98.8219C105.844 98.8219 106.03 98.8219 106.178 98.7848C106.364 98.7848 106.513 98.7476 106.661 98.7476C106.921 98.7476 107.033 98.7848 107.07 98.8219C108.259 99.7879 108.482 100.382 108.482 100.642C108.482 100.828 108.259 101.274 107.033 102.166C106.996 102.203 106.921 102.24 106.698 102.24C106.55 102.24 106.401 102.24 106.253 102.203C106.104 102.203 105.918 102.166 105.77 102.166C91.7999 102.166 77.8302 102.166 63.8605 102.166C53.7548 102.166 43.6491 102.166 33.5433 102.166C29.6793 102.166 28.0446 100.457 28.0446 96.4813C28.0074 91.3912 28.0074 87.453 28.0446 83.7748C28.0817 80.0223 29.7537 78.2389 33.3575 78.2389C35.0666 78.3132 36.85 78.3132 38.6333 78.3132Z" fill="white"/>
<path d="M67.0186 132C31.1655 132 2 102.835 2 66.9814C2 31.1283 31.1655 2 67.0186 2C102.872 2 132.037 31.1655 132.037 67.0186C132.037 77.6073 129.436 88.1217 124.495 97.4473C123.901 98.5247 122.563 98.9334 121.486 98.3761C120.408 97.7817 119.999 96.4441 120.557 95.3667C125.164 86.7099 127.579 76.9014 127.579 67.0186C127.579 33.6176 100.42 6.45842 67.0186 6.45842C33.6176 6.45842 6.45842 33.6176 6.45842 67.0186C6.45842 100.42 33.6176 127.579 67.0186 127.579C82.7345 127.579 97.633 121.597 108.965 110.711C109.857 109.857 111.268 109.894 112.123 110.785C112.977 111.677 112.94 113.089 112.049 113.943C99.8622 125.572 83.8862 132 67.0186 132Z" fill="white"/>
<path d="M117.25 107.962C118.748 107.962 119.962 106.747 119.962 105.25C119.962 103.752 118.748 102.537 117.25 102.537C115.752 102.537 114.538 103.752 114.538 105.25C114.538 106.747 115.752 107.962 117.25 107.962Z" fill="white"/>
</svg>
