<svg width="84" height="84" viewBox="0 0 84 84" fill="none" xmlns="http://www.w3.org/2000/svg">
<rect width="84" height="84" rx="42" transform="matrix(1 0 0 -1 0 84)" fill="#378AB6"/>
<path d="M63.3035 47.5047C63.3035 52.8777 63.3035 58.1364 63.3035 63.395C63.3035 66.1615 62.1146 67.3733 59.3481 67.3733C46.8874 67.3733 34.4267 67.3733 21.966 67.3733C19.2224 67.3733 18.0334 66.1615 18.0334 63.395C18.0334 58.1364 18.0334 52.8777 18.0334 47.6648C17.0503 47.802 16.09 48.1449 15.1526 48.0535C13.415 47.8934 12.2032 46.8874 11.6316 45.2184C11.06 43.5493 11.4716 42.0632 12.6833 40.8057C14.6725 38.7708 16.7073 36.7588 18.7422 34.7468C22.2175 31.2715 25.6928 27.7963 29.168 24.321C29.4653 24.0238 29.854 23.818 30.1512 23.6122C27.339 19.4053 27.499 15.7471 30.4256 13.0035C32.7805 10.7857 37.056 10.0312 40.6685 13.2321C42.4976 11.5173 44.7153 10.7628 47.2303 11.1744C48.8994 11.4487 50.2941 12.249 51.4373 13.5293C53.8837 16.3187 53.838 19.9997 51.2544 23.4293C52.4204 24.5953 53.6093 25.7614 54.7982 26.9503C55.347 27.499 55.5985 28.1164 54.9811 28.7337C54.3638 29.3739 53.7465 29.1681 53.1978 28.5965C52.0317 27.3847 50.8885 26.1958 49.6996 24.9612C48.7394 26.0129 47.9163 26.9274 47.0246 27.8877C47.0017 27.8648 47.1389 28.0249 47.2989 28.1849C52.8777 33.7637 58.4564 39.3424 64.0352 44.9212C64.5382 45.4242 65.0183 45.7214 65.4984 45.79C65.9557 45.8586 66.413 45.7214 66.8702 45.3784C67.8991 44.6011 67.9448 43.3436 66.9388 42.3147C64.9954 40.3256 63.0291 38.3593 61.04 36.4159C60.4684 35.8443 59.9197 35.2041 60.6513 34.4725C61.4058 33.7179 62.0689 34.1981 62.6862 34.8154C64.5839 36.736 66.5044 38.6336 68.425 40.5542C70.1169 42.2461 70.4141 44.3724 69.2709 46.1329C68.082 47.9392 66.0243 48.4879 63.7379 47.5962C63.6236 47.5962 63.5093 47.5733 63.3035 47.5047ZM40.8057 49.6768C41.1258 49.311 41.3315 48.8994 41.6745 48.6937C42.5204 48.2135 42.5433 47.6877 42.2918 46.7731C41.1486 42.6805 44.7611 38.9537 48.8765 39.8911C52.1232 40.6228 53.9751 43.8466 52.9691 47.0932C52.8091 47.5733 52.6033 47.962 53.1978 48.3507C55.0497 49.6082 55.8042 51.4373 55.7814 53.6322C55.7585 57.016 55.7814 60.4227 55.7814 63.8066C55.7814 64.2181 55.7814 64.6068 55.7814 65.0869C57.0846 65.0869 58.2278 65.0869 59.371 65.0869C60.7885 65.0869 60.9943 64.8811 60.9943 63.4179C60.9943 57.7019 60.9714 51.986 61.0171 46.2701C61.0171 45.4927 60.8114 44.9212 60.2398 44.3724C55.4613 39.6168 50.7056 34.8383 45.9271 30.0826C45.6756 29.8311 45.3784 29.6025 44.8754 29.1224C43.8465 30.2655 42.9091 31.363 41.9031 32.3919C40.92 33.3979 40.417 33.3979 39.4338 32.369C38.4278 31.3173 37.5133 30.1969 36.5759 29.1224C36.1643 29.4653 36.05 29.511 35.9586 29.5796C30.8828 34.6325 25.83 39.6854 20.7771 44.784C20.5027 45.0583 20.3655 45.5842 20.3655 45.9957C20.3198 47.7791 20.3427 49.5853 20.3427 51.3687C20.3427 55.4384 20.3198 59.531 20.3655 63.6008C20.3655 64.1038 20.7999 64.9726 21.12 65.0183C22.5604 65.1784 24.0466 65.0869 25.5785 65.0869C25.5785 61.04 25.5785 57.1761 25.5785 53.2893C25.5785 51.4373 26.2644 49.814 27.7505 48.7165C28.505 48.1678 28.5965 47.7105 28.345 46.8646C27.5447 44.2352 28.848 41.4687 31.3172 40.3027C33.8094 39.1366 36.7588 39.9369 38.2907 42.2004C39.5253 44.0295 39.5939 45.95 38.7022 47.9392C39.3881 48.465 40.0054 49.0137 40.8057 49.6768ZM40.6685 30.4256C43.7779 27.4076 46.8645 24.5268 49.7911 21.4859C51.2086 20.0226 51.3458 18.1249 50.477 16.273C49.6082 14.421 48.122 13.4607 46.0643 13.3921C44.3724 13.3236 43.092 14.1238 41.9488 15.267C40.8971 16.3187 40.5084 16.2958 39.3881 15.267C38.9537 14.8554 38.4964 14.421 37.9934 14.1009C36.0043 12.8434 33.3292 13.2321 31.7288 14.9697C30.0826 16.7531 29.8082 19.6111 31.4316 21.3258C34.381 24.4353 37.5362 27.3618 40.6685 30.4256ZM37.2389 49.7225C34.9754 51.2087 32.8034 51.3687 30.5627 50.0198C30.357 49.8826 29.8997 49.9512 29.6711 50.0883C28.4135 50.82 27.842 51.9632 27.842 53.4036C27.842 56.7188 27.842 60.034 27.842 63.3493C27.842 63.898 27.842 64.4696 27.842 64.9955C30.0826 64.9955 32.1403 64.9955 34.2438 64.9955C34.4267 62.1375 33.5579 59.0509 36.553 57.1532C35.7528 54.5239 36.4616 52.5348 38.9308 51.0943C38.3135 50.5913 37.8105 50.1798 37.2389 49.7225ZM53.4721 65.0412C53.4721 60.9257 53.495 56.9246 53.4493 52.9234C53.4264 51.6659 52.7405 50.6828 51.643 50.0655C51.4144 49.9283 50.98 49.8826 50.7514 50.0198C48.5107 51.3458 46.3387 51.1858 44.1209 49.7225C43.595 50.1569 43.0463 50.5913 42.429 51.1172C44.9897 52.5805 45.5842 54.6611 44.8297 57.1989C47.8705 59.1652 46.8645 62.2975 47.1389 65.0412C49.2652 65.0412 51.3001 65.0412 53.4721 65.0412ZM31.7745 25.0069C31.523 25.2355 31.3172 25.4184 31.1343 25.6013C25.6013 31.1115 20.0912 36.6445 14.5582 42.1546C14.3753 42.3376 14.1695 42.5205 14.0323 42.7491C13.4607 43.5951 13.575 44.5553 14.2838 45.2412C15.0154 45.95 15.93 46.0186 16.7759 45.4013C17.0732 45.1727 17.3475 44.8983 17.599 44.6239C22.1946 40.0283 26.8131 35.4099 31.4087 30.8143C32.4376 29.7854 33.4893 28.8023 34.4038 27.9334C33.4893 26.9046 32.6662 25.9672 31.7745 25.0069ZM36.5759 65.0183C39.3424 65.0183 41.9946 65.0183 44.7611 65.0183C44.7611 64.2867 44.7839 63.6008 44.7611 62.9377C44.7153 62.0689 44.7382 61.1772 44.5324 60.3541C44.2123 59.1881 43.5264 58.9366 42.429 59.3939C41.1486 59.9426 39.8911 59.9426 38.7022 59.2795C38.0392 58.9137 37.5819 59.0738 37.2618 59.5996C36.9417 60.1026 36.6673 60.6971 36.6216 61.2687C36.5302 62.4576 36.5759 63.6922 36.5759 65.0183ZM47.619 48.6251C49.4939 48.6479 50.9571 47.1618 50.9571 45.3098C50.9571 43.5265 49.471 42.0403 47.6876 42.0175C45.9043 41.9946 44.3267 43.5722 44.3267 45.3556C44.3495 47.1389 45.8357 48.6022 47.619 48.6251ZM33.6265 48.6251C35.4784 48.6479 37.0103 47.1618 37.0103 45.3327C37.0103 43.5722 35.5013 42.0403 33.7408 42.0175C31.9346 41.9717 30.3798 43.5036 30.3798 45.3327C30.3798 47.1389 31.8202 48.6022 33.6265 48.6251ZM42.8405 55.3241C42.8634 54.1124 41.926 53.1749 40.6913 53.1749C39.4567 53.1749 38.5193 54.0666 38.4964 55.3013C38.4736 56.4673 39.5024 57.4962 40.6456 57.519C41.7888 57.4962 42.8405 56.4673 42.8405 55.3241Z" fill="white"/>
<path d="M57.7934 32.5976C58.4627 32.5976 59.0052 32.0551 59.0052 31.3859C59.0052 30.7166 58.4627 30.1741 57.7934 30.1741C57.1242 30.1741 56.5817 30.7166 56.5817 31.3859C56.5817 32.0551 57.1242 32.5976 57.7934 32.5976Z" fill="white"/>
<path d="M41.0114 81C18.948 81 1 63.052 1 40.9886C1 18.9251 18.948 1 41.0114 1C63.0749 1 81.0228 18.948 81.0228 41.0114C81.0228 47.5276 79.4224 53.998 76.3815 59.7368C76.0157 60.3998 75.1926 60.6513 74.5295 60.3084C73.8665 59.9426 73.615 59.1195 73.958 58.4564C76.7931 53.1292 78.2792 47.0932 78.2792 41.0114C78.2792 20.457 61.5658 3.74364 41.0114 3.74364C20.457 3.74364 3.74364 20.457 3.74364 41.0114C3.74364 61.5659 20.457 78.2792 41.0114 78.2792C50.6827 78.2792 59.8511 74.5982 66.8245 67.8991C67.3732 67.3733 68.242 67.3961 68.7679 67.9448C69.2938 68.4936 69.2709 69.3624 68.7222 69.8883C61.2229 77.0446 51.3915 81 41.0114 81Z" fill="white"/>
<path d="M71.9231 66.2072C72.8449 66.2072 73.5921 65.46 73.5921 64.5382C73.5921 63.6164 72.8449 62.8691 71.9231 62.8691C71.0013 62.8691 70.254 63.6164 70.254 64.5382C70.254 65.46 71.0013 66.2072 71.9231 66.2072Z" fill="white"/>
</svg>
