<svg width="84" height="84" viewBox="0 0 84 84" fill="none" xmlns="http://www.w3.org/2000/svg">
<rect width="84" height="84" rx="42" transform="matrix(1 0 0 -1 0 84)" fill="#378AB6"/>
<path d="M42.0171 3.43404C41.9858 3.43404 41.9546 3.43404 41.8921 3.43404C22.572 3.52768 7.22226 16.4188 3.8772 34.5226C0.0632107 55.1235 14.819 75.4746 35.5146 78.2214C47.1128 79.7509 57.3356 76.692 66.1828 69.0135C66.4329 68.795 66.6205 68.4516 66.8706 68.4204C67.0581 68.3892 67.2457 68.3892 67.4333 68.3892C68.121 68.3892 68.6525 68.9822 68.5587 69.6377C68.5275 69.7938 68.4962 69.9499 68.4024 70.0435C67.5271 71.0111 66.5267 71.8227 65.495 72.6342C42.6111 90.6444 7.87876 78.0341 1.90768 49.5675C-2.71913 27.4372 10.9737 6.55538 33.2012 1.81094C54.0531 -2.62137 75.7178 11.4559 80.0632 32.3377C82.5329 44.23 80.2195 55.1235 73.0292 64.9245C72.8729 65.143 72.7791 65.4551 72.5603 65.5488C72.404 65.6112 72.2477 65.6736 72.0601 65.736C71.2785 66.017 70.4345 65.3303 70.5908 64.5187C70.622 64.4251 70.6533 64.3314 70.6845 64.269C71.4348 62.8956 72.4352 61.7095 73.2481 60.3673C86.9409 38.0497 73.2168 8.14727 47.3004 3.96467C45.2371 3.62132 43.1425 3.55889 42.0171 3.43404Z" fill="white"/>
<path d="M57.0531 38.2376C57.0531 38.1752 57.0844 38.0816 57.0531 38.0191C56.8343 31.1834 54.177 26.3141 48.6436 23.3488C43.1414 20.3523 37.5768 20.6645 32.1997 23.9419C31.9183 24.0979 31.6995 24.4413 31.4181 24.4413C31.2618 24.4413 31.1055 24.4413 30.9492 24.4413C30.1676 24.3789 29.6049 23.5673 29.9488 22.8494C30.0113 22.7558 30.0738 22.6621 30.1363 22.5997C32.4497 20.7269 35.1696 19.6344 38.0769 19.2286C48.0183 17.8553 56.7718 23.8482 58.9601 33.5244C60.2106 39.0804 58.7725 44.2306 56.1778 49.1311C53.0203 55.0929 48.5185 59.9934 43.204 64.1448C41.6408 65.3933 40.4841 65.5182 39.0773 64.3945C31.5744 58.4327 25.3532 51.5033 23.0086 41.8584C21.8206 36.9579 22.5396 32.2446 25.1969 27.9372C25.2907 27.7811 25.4157 27.6875 25.6033 27.5938C26.3224 27.2193 27.1977 27.6875 27.2915 28.4678C27.3227 28.6551 27.2915 28.8112 27.229 28.936C23.8526 34.8041 24.3841 40.7035 27.1352 46.5404C30.0738 52.7831 34.5756 57.7772 39.9214 62.0535C40.5467 62.5529 41.0781 62.8338 41.8284 62.2095C48.456 56.8408 53.9582 50.6918 56.3341 42.2642C56.7718 40.7971 56.8968 39.2365 57.0531 38.2376Z" fill="white"/>
<path d="M40.9218 46.0722C36.1074 46.0409 32.1996 42.1081 32.2309 37.3324C32.2934 32.6192 36.2012 28.7487 40.9531 28.7487C45.7674 28.7487 49.7377 32.6816 49.7065 37.4573C49.7065 42.2329 45.7674 46.1034 40.9218 46.0722ZM34.6694 37.3636C34.6694 40.8907 37.4517 43.7312 40.9531 43.7624C44.4232 43.7936 47.268 40.9219 47.2993 37.426C47.2993 33.8989 44.5482 31.0585 41.0156 31.0273C37.5142 31.0273 34.7006 33.8677 34.6694 37.3636Z" fill="white"/>
</svg>
