<svg width="140" height="140" viewBox="0 0 140 140" fill="none" xmlns="http://www.w3.org/2000/svg">
<rect width="140" height="140" rx="69" fill="#008065"/>
<path d="M112.123 93.2861C107.144 84.295 102.24 75.0438 97.4844 66.0898C95.7011 62.7088 93.8434 59.1792 91.9857 55.7611C90.5367 53.0861 89.1249 50.3739 87.6759 47.6988C85.3353 43.3147 82.9946 38.9306 80.6539 34.5465C80.3195 33.952 79.8365 33.0232 78.9077 33.0232C78.6105 33.0232 78.3132 33.1347 77.9789 33.3204C76.5299 34.1378 77.3101 35.5496 77.6073 36.1441C77.9417 36.7385 78.2389 37.333 78.5362 37.9646C78.6105 38.1132 78.6848 38.2618 78.7591 38.3733C77.533 38.3733 76.3441 38.3733 75.1552 38.3733C73.8177 38.3733 72.5173 38.3733 71.2169 38.3733C69.2106 38.3733 67.5759 38.3733 66.0154 38.4105C62.3373 38.4848 59.2535 41.5685 59.1421 45.321C59.0306 48.8506 61.8543 52.0086 65.3838 52.4173C66.0898 52.4916 66.9443 52.5659 67.7617 52.5659C68.2075 52.5659 68.6162 52.5288 69.0249 52.4916C69.2106 52.4545 69.3964 52.4545 69.545 52.4545C70.9197 52.4545 71.7742 53.1975 72.6288 54.3493H46.5842C46.9929 53.5691 47.4387 52.7517 47.8474 52.0086C49.0363 49.8166 50.1509 47.7731 51.1912 45.5811C52.2687 43.3147 53.2718 41.5685 55.5753 41.5685C55.9469 41.5685 56.3555 41.6057 56.7642 41.7171C56.8014 41.7171 56.8385 41.7171 56.9128 41.7171C57.3587 41.7171 57.7302 41.3084 58.1761 40.8626C58.3247 40.6768 58.5104 40.4911 58.6591 40.3796C58.7334 40.3053 58.8077 40.1938 58.8077 40.0824C58.8077 39.9709 58.7705 39.8594 58.6591 39.7851C58.5104 39.6737 58.3247 39.5251 58.1761 39.3764C57.7674 39.0049 57.3587 38.6334 56.8385 38.4476C56.6156 38.3361 56.3555 38.299 55.984 38.299C55.7611 38.299 55.5753 38.299 55.3524 38.3361C55.3153 38.3361 55.2409 38.3361 55.2038 38.3361C55.3152 38.0761 55.3896 37.9275 55.4639 37.7417L57.2101 34.4722C59.9966 29.2707 62.8574 23.8834 65.7554 18.5705C66.0526 18.0132 66.6842 17.4187 66.9814 17.4187C67.3158 17.4187 67.8731 18.0132 68.2447 18.682C69.5822 21.0969 70.8825 23.5491 72.1458 25.9269C72.8145 27.1901 73.4833 28.4162 74.1521 29.6422C74.2264 29.7537 74.2635 29.8652 74.3378 29.9766C74.7094 30.7197 75.1924 31.6485 76.1583 31.6485C76.4556 31.6485 76.7528 31.5742 77.1243 31.3884C77.6073 31.1284 77.9046 30.794 78.016 30.4225C78.2018 29.7537 77.8302 29.0849 77.4959 28.4905C77.4216 28.379 77.3473 28.2304 77.3101 28.1189C76.4927 26.5957 75.6753 25.0724 74.8951 23.5862C73.8177 21.5799 72.7031 19.4993 71.6256 17.4187C70.6596 15.5611 69.5822 13.8892 67.0929 13.8892H67.0557C64.5665 13.8892 63.489 15.5239 62.4487 17.493C60.2195 21.7285 57.916 26.0012 55.6868 30.1624C54.6465 32.1315 53.569 34.1007 52.5287 36.0698C44.8008 50.5225 37.0729 65.0123 29.345 79.465L29.2335 79.6508C28.8991 80.2824 28.5276 80.9512 28.7134 81.6571C28.8248 82.0286 29.1221 82.363 29.605 82.5859C29.9023 82.7346 30.1995 82.8089 30.4596 82.8089C31.4627 82.8089 31.9457 81.8429 32.3544 81.0626C32.7259 80.3196 33.1346 79.5765 33.5433 78.8706C34.2121 77.6817 34.8808 76.4556 35.4381 75.1924C35.884 74.2264 36.4413 73.8549 37.593 73.8549C37.6302 73.8549 37.7045 73.8549 37.7417 73.8549C39.0792 73.892 40.5282 73.892 42.3115 73.892C43.3147 73.892 44.3178 73.892 45.321 73.892C46.3241 73.892 47.3273 73.892 48.2932 73.892H49.6308H51.9714L50.9683 76.0098H50.9311C50.7082 75.9726 50.5225 75.9355 50.3367 75.8983C49.8908 75.8612 49.4078 75.824 48.962 75.824C44.8008 75.824 41.8657 78.3504 41.1226 82.5488C40.4167 86.5614 41.7171 90.2396 44.9866 93.5091C46.1755 94.698 47.6245 95.2924 49.3707 95.2924C49.5936 95.2924 49.7794 95.2924 50.0023 95.2553C50.8568 95.181 51.7857 95.1067 52.7145 95.1067C53.3461 95.1067 53.9406 95.1438 54.4607 95.2181C54.8323 95.2553 55.2038 95.2924 55.5382 95.2924C57.7674 95.2924 59.625 94.3264 60.8883 92.5059C62.2258 90.5739 63.1546 88.7534 63.6376 87.0443C64.3807 84.3693 64.1206 81.6943 62.8202 79.6137C61.7056 77.756 59.848 76.4556 57.6559 76.0098C56.95 75.8612 56.2441 75.824 55.501 75.7869C55.3524 75.7869 55.1666 75.7869 55.018 75.7497C55.6868 74.7837 56.5785 74.2264 57.916 73.892C58.7334 73.7063 59.9594 72.8889 60.0337 72.1087C60.0709 71.6257 59.9594 71.2541 59.6994 70.9941C59.2164 70.5111 58.4361 70.4367 57.6931 70.4367H57.6188C54.9809 70.4367 52.12 70.4367 48.8505 70.4367C45.8411 70.4367 42.8317 70.4367 39.8223 70.4367H39.4136C39.042 70.4367 38.6705 70.3996 38.2618 70.3996C38.2246 70.3996 38.1503 70.3996 38.1132 70.3996C38.5219 69.6194 38.9306 68.8392 39.3764 68.0589C41.1598 64.7151 42.8317 61.5199 44.615 58.3619C44.7637 58.1018 45.4324 57.8417 45.9154 57.8417C53.1603 57.8046 59.6622 57.8046 65.7925 57.8046C73.8177 57.8046 81.1369 57.8046 88.2332 57.8417C88.7534 57.8417 89.5336 58.3247 89.7937 58.8077C90.9826 60.8512 92.0972 62.9689 93.1746 65.0495C93.5462 65.7183 93.8805 66.4242 94.2521 67.0929C94.6979 67.9103 95.1438 68.7648 95.5896 69.6565L95.9983 70.4367H94.3264H87.7874H80.7282C75.3781 70.4367 70.028 70.4367 64.6779 70.4367H64.6408C64.0463 70.4367 63.2289 70.4368 62.7088 70.9569C62.4116 71.2541 62.2629 71.7 62.3001 72.2573C62.3373 73.8177 63.6005 73.8549 64.4178 73.892H64.6036C64.7894 73.892 64.9751 73.892 65.2352 73.892C65.3838 73.892 65.4953 73.892 65.6439 73.892C65.7925 73.892 65.904 73.892 66.0526 73.892C68.5047 73.892 70.9569 73.892 73.4461 73.892C75.9354 73.892 78.4247 73.892 80.914 73.892C87.0443 73.892 91.7256 73.892 96.1098 73.8549H96.1469C97.4844 73.8549 98.116 74.2636 98.7848 75.4896C101.274 80.2453 103.838 85.0381 106.29 89.6451C107.144 91.2798 108.036 92.8774 108.891 94.5122C109.299 95.2924 109.819 96.3699 109.559 96.7786C109.299 97.1873 108.185 97.2244 107.33 97.2244C104.284 97.2244 101.274 97.2244 98.2275 97.2244H92.2458H86.2641H86.0783H83.106C83.106 96.89 83.106 96.5556 83.106 96.2584C83.106 95.1438 83.0689 94.0664 83.1432 93.0261C83.1432 92.8031 83.5519 92.3573 83.7005 92.3202C89.3478 91.2427 93.7691 85.1124 93.992 78.0904C94.0292 77.273 93.8434 76.6414 93.4347 76.2327C93.1375 75.9355 92.7288 75.7497 92.2458 75.7497C92.06 75.7497 91.8371 75.7868 91.6142 75.824C91.3541 75.8983 91.094 75.9355 90.834 76.0098C89.1992 76.3813 87.4902 76.79 86.1898 77.756C84.7408 78.8334 83.5519 80.2081 82.363 81.5456C81.9914 81.9915 81.5828 82.4373 81.1741 82.846C80.9883 82.5116 80.7282 82.1029 80.4681 81.6943C78.2389 78.239 75.2295 76.2327 71.4398 75.7497C71.2169 75.7125 70.994 75.7125 70.8082 75.7125C70.1023 75.7125 69.6193 75.8983 69.2478 76.2327C68.9134 76.6042 68.7276 77.1244 68.7276 77.7931C68.8763 84.7037 73.1118 90.7597 78.8334 92.2087C79.1306 92.283 79.5765 92.7288 79.6136 92.9518C79.6879 93.9921 79.6879 95.0323 79.6879 96.147C79.6879 96.4442 79.6879 96.7786 79.6879 97.0758C79.6508 97.0758 79.5765 97.0758 79.5393 97.1129C79.2792 97.1501 79.0563 97.1873 78.8705 97.1873C69.5079 97.1873 60.1452 97.1873 50.7825 97.1873C42.5345 97.1873 34.2492 97.1873 26.0012 97.1873C25.1838 97.1873 24.6636 97.0386 24.4779 96.7414C24.2921 96.4442 24.4036 95.8869 24.7751 95.1438C25.3324 94.1035 25.8897 93.0261 26.447 91.9858C27.3758 90.2396 28.3418 88.419 29.2335 86.6357C29.4564 86.1527 29.3078 85.5582 29.1592 85.0009C29.0849 84.778 29.0477 84.5551 29.0106 84.3693C29.0106 84.2578 28.9363 84.1464 28.8248 84.1092C28.7505 84.0721 28.7134 84.0721 28.6391 84.0721C28.6019 84.0721 28.5647 84.0721 28.4904 84.1092C28.3047 84.1835 28.0446 84.2578 27.8217 84.295C27.2272 84.4436 26.5956 84.5922 26.2984 85.0752C24.6265 87.9732 22.8431 91.0941 21.357 94.4007C20.8368 95.5525 20.9854 97.1873 21.3941 98.2276C22.2487 100.382 24.2921 100.68 26.3727 100.68C31.3141 100.68 36.2184 100.68 41.1226 100.68C50.1509 100.68 59.1792 100.68 68.2075 100.68C83.4776 100.68 95.9611 100.717 107.479 100.754H107.516C109.745 100.754 111.417 99.9366 112.309 98.4505C113.2 97.0758 113.126 95.1067 112.123 93.2861ZM72.926 43.0918C72.8517 42.6831 72.7402 42.2744 72.6659 41.8286C73.0746 41.8286 73.4833 41.8286 73.892 41.8286C74.5236 41.8286 75.118 41.8286 75.7497 41.8286C77.0129 41.8286 78.6848 41.8286 80.3195 41.8657C80.431 41.8657 80.6911 42.0515 80.8397 42.2744C81.2484 42.9432 81.6199 43.6491 81.9914 44.3179C82.1029 44.5036 82.1772 44.6894 82.2887 44.8752C83.5519 47.253 84.8151 49.6308 86.1155 52.0829L87.3787 54.4236C86.6356 54.4236 85.8926 54.4236 85.1495 54.4236C84.2206 54.4236 83.3661 54.4236 82.4744 54.4236C80.6911 54.4236 79.2792 54.3865 78.016 54.3121C77.6445 54.275 77.2358 53.8663 76.79 53.4205C76.4927 53.1232 76.1955 52.826 75.8983 52.6031C73.892 51.1912 73.1118 49.2964 73.3347 46.5099C73.4461 45.4325 73.1861 44.3179 72.926 43.0918ZM69.8794 48.0704C69.8794 48.4047 69.8794 48.7391 69.8794 49.1107C69.5079 49.1107 69.1363 49.1107 68.7648 49.1107C68.319 49.1107 67.9103 49.1107 67.5016 49.1107C66.9071 49.1107 66.4241 49.1107 65.9783 49.0735C64.0092 48.9249 62.5973 47.2158 62.7088 45.1724C62.8202 43.2776 64.3807 41.8657 66.3127 41.8657H66.387C68.3933 41.9029 69.8051 43.3147 69.8794 45.3582C69.9166 46.2127 69.8794 47.1044 69.8794 48.0704ZM50.2624 79.5022C50.894 79.5765 51.5627 79.6508 52.2687 79.6508C53.0117 79.6508 53.8291 79.6137 54.6836 79.5022C55.0552 79.465 55.3896 79.4279 55.7239 79.4279C58.6962 79.4279 60.5167 81.1741 60.9254 84.5179C60.7025 85.0381 60.4796 85.5954 60.2938 86.1527C59.8108 87.4159 59.3278 88.7163 58.6591 89.868C57.8417 91.2799 56.7271 91.9858 55.3524 91.9858C54.9066 91.9858 54.4236 91.9115 53.9406 91.7628C53.5319 91.6514 53.086 91.5771 52.603 91.5771C51.9714 91.5771 51.2655 91.6514 50.4481 91.8372C50.1138 91.9115 49.7794 91.9486 49.445 91.9486C48.4047 91.9486 47.5502 91.5399 46.8071 90.6482C44.9494 88.4933 44.1692 86.227 44.3921 83.7377C44.615 80.9512 46.287 79.3907 48.9992 79.3907C49.445 79.3907 49.8537 79.4279 50.2624 79.5022ZM83.4404 88.8649C83.6262 84.6665 86.6728 80.654 90.3138 79.7251C90.2024 83.5891 86.6728 88.3076 83.4404 88.8649ZM79.3535 88.8277C75.6753 87.7131 72.4801 83.5148 72.5173 79.688C76.3441 80.8769 79.465 85.0381 79.3535 88.8277Z" fill="white"/>
<path d="M67.0557 36.0326C63.8605 36.0698 61.557 33.0603 62.6716 30.0881C63.4519 28.0075 64.6036 26.0383 65.7554 24.1064C66.4613 22.9174 67.5759 22.9546 68.2818 24.1435C69.3964 26.0755 70.5482 28.0446 71.3284 30.1624C72.4058 33.0603 70.1395 35.9955 67.0557 36.0326ZM67.0186 26.9672C66.2755 28.5276 65.5696 29.6051 65.3095 30.7568C65.1609 31.4256 65.4581 32.4659 65.9411 32.9117C66.3498 33.2833 67.613 33.3204 67.9846 32.986C68.5047 32.4659 68.8763 31.4256 68.7276 30.7197C68.4304 29.6051 67.7617 28.5648 67.0186 26.9672Z" fill="white"/>
<path d="M58.8076 60.591C58.9934 60.7396 59.4392 60.9626 59.6993 61.3341C60.591 62.7459 61.4827 64.1578 62.1515 65.6439C62.3744 66.1641 61.9285 66.9814 61.8171 67.6502C61.1855 67.4273 60.2566 67.3901 59.9222 66.9071C58.9934 65.6068 58.2132 64.1949 57.5073 62.7831C56.8757 61.5942 57.433 60.5167 58.8076 60.591Z" fill="white"/>
<path d="M69.8794 66.3869C69.4707 66.9442 69.2106 67.5759 68.8391 67.6502C68.3561 67.7616 67.5387 67.613 67.2787 67.2415C66.2755 65.7182 65.3467 64.1206 64.5293 62.4487C64.3435 62.04 64.5664 61.2598 64.8637 60.8882C65.0866 60.6282 66.0897 60.5538 66.2384 60.7768C67.5016 62.5973 68.6533 64.455 69.8794 66.3869Z" fill="white"/>
<path d="M77.05 66.4613C76.6042 67.0186 76.3441 67.5759 76.0097 67.6502C75.4896 67.7245 74.6722 67.6131 74.4493 67.2787C73.409 65.6811 72.4801 64.0463 71.6256 62.3373C71.4398 61.9657 71.7742 61.2227 72.1086 60.814C72.2944 60.5911 73.2232 60.5539 73.3718 60.7397C74.635 62.5973 75.8239 64.4922 77.05 66.4613Z" fill="white"/>
<path d="M67.0186 132C31.1655 132 2 102.835 2 66.9814C2 31.1283 31.1655 2 67.0186 2C102.872 2 132.037 31.1655 132.037 67.0186C132.037 77.6073 129.436 88.1217 124.495 97.4473C123.901 98.5247 122.563 98.9334 121.486 98.3761C120.408 97.7817 119.999 96.4441 120.557 95.3667C125.164 86.7099 127.579 76.9014 127.579 67.0186C127.579 33.6176 100.42 6.45842 67.0186 6.45842C33.6176 6.45842 6.45842 33.6176 6.45842 67.0186C6.45842 100.42 33.6176 127.579 67.0186 127.579C82.7345 127.579 97.633 121.597 108.965 110.711C109.857 109.857 111.268 109.894 112.123 110.785C112.977 111.677 112.94 113.089 112.049 113.943C99.8622 125.572 83.8862 132 67.0186 132Z" fill="white"/>
<path d="M117.25 107.962C118.748 107.962 119.962 106.747 119.962 105.25C119.962 103.752 118.748 102.537 117.25 102.537C115.752 102.537 114.538 103.752 114.538 105.25C114.538 106.747 115.752 107.962 117.25 107.962Z" fill="white"/>
</svg>
