<svg width="140" height="140" viewBox="0 0 140 140" fill="none" xmlns="http://www.w3.org/2000/svg">
<rect width="140" height="140" rx="69" fill="#E38501"/>
<path d="M66.0186 133C30.1655 133 1 103.835 1 67.9814C1 32.1283 30.1655 3 66.0186 3C101.872 3 131.037 32.1655 131.037 68.0186C131.037 78.6073 128.436 89.1217 123.495 98.4473C122.901 99.5247 121.563 99.9334 120.486 99.3761C119.408 98.7817 118.999 97.4441 119.557 96.3667C124.164 87.7099 126.579 77.9014 126.579 68.0186C126.579 34.6176 99.4195 7.45842 66.0186 7.45842C32.6176 7.45842 5.45842 34.6176 5.45842 68.0186C5.45842 101.42 32.6176 128.579 66.0186 128.579C81.7345 128.579 96.633 122.597 107.965 111.711C108.857 110.857 110.268 110.894 111.123 111.785C111.977 112.677 111.94 114.089 111.049 114.943C98.8622 126.572 82.8862 133 66.0186 133Z" fill="white"/>
<path d="M116.25 108.962C117.748 108.962 118.962 107.747 118.962 106.25C118.962 104.752 117.748 103.537 116.25 103.537C114.752 103.537 113.538 104.752 113.538 106.25C113.538 107.747 114.752 108.962 116.25 108.962Z" fill="white"/>
<path d="M41.2745 88.193C42.2594 88.193 43.0578 87.3945 43.0578 86.4096C43.0578 85.4247 42.2594 84.6262 41.2745 84.6262C40.2895 84.6262 39.4911 85.4247 39.4911 86.4096C39.4911 87.3945 40.2895 88.193 41.2745 88.193Z" fill="white"/>
<path d="M64.4582 104.28C65.5047 104.28 66.353 103.432 66.353 102.386C66.353 101.339 65.5047 100.491 64.4582 100.491C63.4117 100.491 62.5634 101.339 62.5634 102.386C62.5634 103.432 63.4117 104.28 64.4582 104.28Z" fill="white"/>
<path d="M111.272 64.2661C105.996 65.3064 100.757 66.3467 95.4813 67.4984C93.7723 67.87 93.3264 69.3933 94.5154 70.7308C95.147 71.3996 95.9643 71.8826 96.5216 72.3284C93.4379 75.4493 90.6514 78.1986 87.7534 81.1338C86.0072 79.3504 84.1495 77.4184 82.2919 75.5236C80.4713 73.7031 79.8397 73.7031 78.0192 75.5607C75.8643 77.7528 73.7094 79.9449 71.5545 82.1369C71.2944 81.4682 71.3316 81.0223 71.443 80.5765C72.1861 77.9014 73.0406 75.2635 73.6351 72.5513C73.9695 71.0652 74.1181 69.5047 73.9323 68.0186C73.5236 64.8234 71.3316 62.8171 68.5451 61.3681C69.3624 59.0646 70.1427 56.8726 70.9229 54.6062C71.5545 54.6062 72.1118 54.6062 72.6691 54.6062C78.3536 54.6805 83.3322 52.8228 87.7163 49.2561C90.2055 47.2127 90.6885 44.0174 88.8309 41.7139C86.936 39.3733 84.0381 39.1503 81.4373 41.0823C80.5828 41.7139 79.7654 42.3455 78.8366 42.8285C75.8272 44.4261 72.5205 43.906 70.217 41.5282C75.6785 37.85 77.2018 33.6516 74.7497 29.2304C72.5948 25.3664 67.9135 23.7688 63.8637 25.5893C61.8574 26.481 60.3713 27.9671 59.5539 29.9734C58.4022 32.7599 58.7737 35.5093 59.9626 37.6271C57.6963 39.559 55.5785 41.2681 53.6094 43.1629C50.8972 45.7637 47.8506 47.77 44.321 49.1075C42.6119 49.7762 40.9772 50.7051 39.0452 51.6339C38.265 50.8165 37.2247 49.6648 36.1101 48.5873C33.918 46.4696 31.5774 46.4696 29.4225 48.6245C26.3387 51.6711 23.2921 54.7548 20.2084 57.8014C17.8677 60.1421 17.8677 62.3713 20.2456 64.7119C24.4811 68.9846 28.7165 73.2201 32.9892 77.4556C35.4042 79.8334 37.6705 79.8705 40.0484 77.4927C41.3859 76.118 42.6119 74.5948 43.8752 73.1829C44.0609 73.3315 44.2095 73.5173 44.3953 73.6659C43.6894 75.4864 42.9092 77.307 42.389 79.2018C42.2033 79.8706 42.5748 80.9109 43.0949 81.431C43.4293 81.7654 44.5439 81.6539 45.0641 81.3567C45.5471 81.0595 45.8443 80.2792 46.0672 79.6848C47.8134 75.1521 49.5225 70.5822 51.343 66.0495C51.5659 65.455 52.3833 64.7491 52.9406 64.7119C57.139 64.6005 61.3745 64.5633 65.5728 64.6748C68.9166 64.7491 71.1087 67.7214 70.2541 70.9909C69.0652 75.5236 67.7649 80.0192 66.5016 84.5519C66.1673 85.778 66.1673 87.6728 64.1981 87.1898C62.3776 86.7811 63.0835 85.072 63.2693 83.8831C63.8637 79.8334 64.5325 75.8208 65.2013 71.8082C65.4613 70.1735 64.8297 69.3561 63.1578 69.2075C62.1175 69.1332 61.0401 69.2447 59.9998 69.1704C58.5136 69.0589 57.5848 69.6905 56.916 71.028C55.8014 73.3687 54.6125 75.6722 53.4236 77.9757C49.9683 84.812 46.5131 91.6482 43.0578 98.4844C42.4633 99.6362 41.6088 100.268 40.3827 99.7848C39.0452 99.2647 39.1195 98.1129 39.5282 96.9611C39.8254 96.1066 40.3827 95.2149 40.4199 94.3604C40.4199 93.6545 39.9741 92.4284 39.4911 92.2798C38.8223 92.094 37.4848 92.5027 37.2247 93.06C36.4445 94.6576 35.7757 96.4038 35.6271 98.1129C35.367 101.234 37.8935 103.612 41.0515 103.649C43.6522 103.686 45.3242 102.348 46.4388 100.119C50.7486 91.4996 55.0955 82.9171 59.4796 74.3347C59.7769 73.7774 60.2598 73.2944 60.6685 72.8114C60.8543 72.9228 61.0029 73.0715 61.1887 73.1829C60.6685 76.4524 60.2598 79.7591 59.6282 83.0286C58.9966 86.3724 59.2567 89.1961 62.8234 90.868C62.3033 91.4253 61.8946 91.8711 61.4488 92.317C55.2813 98.4844 49.1138 104.652 42.9463 110.857C41.3116 112.528 41.3116 113.197 42.9463 114.869C43.3179 115.278 44.1724 116.058 44.1724 116.058L45.8071 117.433C45.8071 117.433 45.8071 117.433 45.8443 117.433L47.9992 119.55C48.6308 120.182 49.6711 120.182 50.3027 119.513L52.3462 117.433C52.3462 117.433 52.3462 117.433 52.3833 117.433C52.7177 117.061 53.0149 116.69 53.3865 116.355C55.6528 114.089 57.9192 111.785 60.2227 109.519C61.0772 108.664 61.3745 107.699 60.5199 106.733C59.5539 105.692 58.5508 105.989 57.5848 106.881C57.1761 107.253 56.8046 107.661 56.3959 108.07C53.9066 110.559 51.4545 113.049 49.151 115.352C48.0735 114.46 47.219 113.717 46.5502 113.16C57.9563 101.754 69.251 90.4964 80.6943 79.0532C82.329 80.7622 84.1495 82.6199 85.9701 84.4776C87.9763 86.521 88.4222 86.4839 90.5028 84.4033C93.4751 81.431 96.4473 78.4587 99.4196 75.4864C101.612 73.2944 101.612 73.2944 99.9769 70.545C103.061 69.9134 106.107 69.319 109.451 68.6502C108.745 72.0312 108.151 75.0778 107.519 78.2358C104.472 75.858 104.472 75.858 101.835 78.4959C101.426 78.9046 101.054 79.2761 100.646 79.6848C96.5216 83.8088 92.4348 87.8957 88.1621 92.1684C86.1187 90.0878 84.1867 88.1186 82.2176 86.1495C80.6943 84.6262 79.8769 84.6262 78.3164 86.1495C75.1955 89.2332 72.1118 92.3913 68.9909 95.475C68.0249 96.441 67.319 97.5184 68.3965 98.6702C69.6225 100.008 70.7 99.0789 71.666 98.0758C74.4896 95.2149 77.3133 92.3913 80.3599 89.3447C82.0318 91.0909 83.5551 92.7256 85.1155 94.2861C88.1993 97.407 88.1993 97.407 91.3573 94.2489C95.7786 89.8277 100.163 85.4436 104.844 80.7251C105.661 81.6911 106.33 82.6199 107.148 83.363C108.559 84.6633 110.046 84.2175 110.454 82.3598C111.606 77.1583 112.646 71.9569 113.649 66.7554C113.835 65.1206 112.683 63.9689 111.272 64.2661ZM36.816 75.1521C32.0975 70.3964 27.379 65.6779 22.5491 60.8108C23.5151 59.9934 24.9269 58.8045 26.5988 57.4299C26.9703 57.8757 27.5276 58.6188 28.2336 59.2504C29.2367 60.1792 29.794 60.9966 29.4968 62.557C29.0138 65.2321 32.1718 68.2415 34.884 67.7585C36.1844 67.4984 36.9275 67.87 37.7448 68.7245C38.6365 69.6533 39.6768 70.4336 40.6057 71.2509C39.0452 72.8114 37.8192 74.0746 36.816 75.1521ZM34.401 61.4424C34.884 61.8883 35.3299 62.3341 35.9243 62.8914C35.4413 63.3744 35.0326 63.8203 34.6983 64.1918C32.7663 63.04 32.7663 62.9657 34.401 61.4424ZM42.872 68.6131C41.8689 67.6099 40.6057 66.3467 39.3424 65.0463C40.8286 62.4827 40.8286 62.4456 38.6365 60.2535C37.9678 59.5848 37.3362 58.9531 36.6674 58.2844C34.6983 56.3153 34.5496 56.3153 32.2461 57.9128C31.1687 56.7611 30.0912 55.6093 28.7909 54.2347C29.794 53.2687 30.8715 52.1541 32.0604 51.1881C32.3576 50.9651 33.175 50.928 33.435 51.1509C38.0049 55.6465 42.5376 60.2164 47.219 64.8605C45.6585 66.1981 44.2839 67.387 42.872 68.6131ZM48.928 61.2195C48.185 60.4393 47.6277 59.8077 46.9589 59.0646C47.7763 58.7674 48.5937 58.433 49.7826 57.9872C49.4482 59.2504 49.2253 60.1049 48.928 61.2195ZM48.3336 54.5319C47.0332 54.9034 45.8071 55.5722 44.5068 55.8694C43.9866 55.9809 43.3179 55.3121 42.6863 55.0149C42.9835 54.4204 43.1321 53.4916 43.6151 53.3058C46.3273 52.0426 49.0767 50.928 51.7889 49.7762C51.7517 52.0426 50.86 53.826 48.3336 54.5319ZM67.3562 28.4501C69.9198 28.4873 72.0003 30.605 72.0003 33.2429C72.0003 35.8808 69.9198 37.9986 67.3562 37.9986C64.7183 38.0357 62.5634 35.8065 62.6377 33.0943C62.6377 30.5307 64.7926 28.4501 67.3562 28.4501ZM67.3933 53.1572C66.7989 55.3493 65.9443 57.467 65.127 59.6219C64.9412 60.1049 64.3839 60.7365 64.0124 60.7365C60.3713 60.8108 56.7674 60.7737 52.9406 60.7737C54.3153 55.535 55.4671 50.4822 57.0275 45.5779C58.2907 41.5282 63.5665 40.2649 66.5759 43.3487C70.9972 47.9186 77.8706 48.996 83.5179 44.0918C84.261 43.4601 85.1527 42.9028 85.8957 43.9431C86.676 44.9834 86.0444 45.7265 85.1527 46.4324C80.9915 49.7762 76.2358 51.2252 70.9972 50.6679C68.8423 50.4822 67.9135 51.2252 67.3933 53.1572Z" fill="white"/>
</svg>
