<svg width="67" height="69" viewBox="0 0 67 69" fill="none" xmlns="http://www.w3.org/2000/svg">
<rect width="67" height="69" rx="33.5" fill="#E38501"/>
<g clip-path="url(#clip0_171:775)">
<path d="M31.5945 65.5501C14.4363 65.5501 0.478516 51.1757 0.478516 33.5052C0.478516 15.8347 14.4363 1.47864 31.5945 1.47864C48.7528 1.47864 62.7106 15.8531 62.7106 33.5235C62.7106 38.7422 61.4659 43.9244 59.1011 48.5205C58.8166 49.0515 58.1765 49.253 57.6609 48.9783C57.1452 48.6853 56.9497 48.0261 57.2164 47.4951C59.4212 43.2285 60.5769 38.3943 60.5769 33.5235C60.5769 17.0616 47.5793 3.676 31.5945 3.676C15.6098 3.676 2.61219 17.0616 2.61219 33.5235C2.61219 49.9854 15.6098 63.371 31.5945 63.371C39.1157 63.371 46.2457 60.4229 51.6688 55.0577C52.0956 54.6365 52.7712 54.6548 53.1802 55.0943C53.5891 55.5338 53.5713 56.2296 53.1446 56.6507C47.3126 62.3822 39.6669 65.5501 31.5945 65.5501Z" fill="white"/>
<path d="M55.5807 53.5378C56.2975 53.5378 56.8787 52.9394 56.8787 52.2011C56.8787 51.4629 56.2975 50.8644 55.5807 50.8644C54.8638 50.8644 54.2827 51.4629 54.2827 52.2011C54.2827 52.9394 54.8638 53.5378 55.5807 53.5378Z" fill="white"/>
<path d="M45.268 14.4797H18.6682C17.6191 14.4797 16.7834 15.3587 16.7834 16.4207V35.9956C16.7834 37.0759 17.6369 37.9366 18.6682 37.9366H45.268C46.317 37.9366 47.1527 37.0576 47.1527 35.9956V16.4207C47.1527 15.3587 46.2992 14.4797 45.268 14.4797ZM18.6682 16.1278H45.268C45.428 16.1278 45.5524 16.2559 45.5524 16.4207V21.8775H18.3659V16.4207C18.3659 16.2559 18.5082 16.1278 18.6682 16.1278ZM45.268 36.2886H18.6682C18.5082 36.2886 18.3837 36.1604 18.3837 35.9956V23.5255H45.5524V35.9956C45.5524 36.1604 45.4102 36.2886 45.268 36.2886Z" fill="white"/>
<path d="M20.2861 20.9437H29.852C30.4388 20.9437 30.9189 20.4492 30.9189 19.845V18.2702C30.9189 17.6659 30.4388 17.1715 29.852 17.1715H20.2861C19.6993 17.1715 19.2192 17.6659 19.2192 18.2702V19.845C19.2192 20.4492 19.6993 20.9437 20.2861 20.9437ZM20.2861 18.2702H29.852V19.845H20.2861V18.2702Z" fill="white"/>
<path d="M32.8037 20.9437H35.3996C35.9864 20.9437 36.4665 20.4492 36.4665 19.845V18.2702C36.4665 17.6659 35.9864 17.1715 35.3996 17.1715H32.8037C32.2169 17.1715 31.7368 17.6659 31.7368 18.2702V19.845C31.7368 20.4492 32.2169 20.9437 32.8037 20.9437ZM32.8037 18.2702H35.3996V19.845H32.8037V18.2702Z" fill="white"/>
<path d="M50.2465 27.6639V15.8165C50.2465 13.3261 48.2728 11.2936 45.8547 11.2936H17.5302C15.112 11.2936 13.1384 13.3261 13.1384 15.8165V27.7921C12.0893 28.1583 11.3425 29.1838 11.3425 30.3557V33.8349C11.3425 35.0251 12.1071 36.0505 13.1384 36.3984V48.6854C13.1384 50.6813 14.4008 52.3659 16.1433 52.9702V54.7464C16.1433 56.2296 17.3168 57.4199 18.7393 57.4199H22.1353C23.5756 57.4199 24.7313 56.2113 24.7313 54.7464V53.2083H38.5646V54.5999C38.5646 56.0831 39.7381 57.2734 41.1606 57.2734H44.5567C45.9969 57.2734 47.1526 56.0648 47.1526 54.5999V53.0068C48.9485 52.4392 50.2465 50.7179 50.2465 48.6854V36.5266C51.58 36.3984 52.6468 35.2448 52.6468 33.8165V30.3374C52.6468 28.9457 51.5978 27.7921 50.2465 27.6639ZM23.1133 54.7647C23.1133 55.3324 22.6688 55.7902 22.1176 55.7902H18.7215C18.1703 55.7902 17.7258 55.3324 17.7258 54.7647V53.2266H23.1133V54.7647ZM44.5567 55.6437H41.1606C40.6094 55.6437 40.1649 55.1859 40.1649 54.6182V53.2266H45.5524V54.6182C45.5524 55.1859 45.1079 55.6437 44.5567 55.6437ZM51.0466 33.8349C51.0466 34.4208 50.5843 34.8969 50.0153 34.8969H48.6462V48.6854C48.6462 50.2784 47.3838 51.5602 45.8547 51.5602H17.5302C15.9833 51.5602 14.7386 50.2601 14.7386 48.6854V34.9152L13.9563 34.8969C13.4051 34.8786 12.9428 34.4025 12.9428 33.8349V30.3557C12.9428 29.788 13.4051 29.2936 13.9563 29.2936L14.7386 29.2753V15.8165C14.7386 14.2234 16.001 12.9416 17.5302 12.9416H45.8547C47.4016 12.9416 48.6462 14.2417 48.6462 15.8165V29.2936H50.0153C50.5843 29.2936 51.0466 29.7697 51.0466 30.3557V33.8349Z" fill="white"/>
<path d="M20.4285 41.0496C18.5437 41.0496 16.9968 42.6243 16.9968 44.5837C16.9968 46.543 18.526 48.1178 20.4285 48.1178C22.331 48.1178 23.8601 46.543 23.8601 44.5837C23.8601 42.6243 22.3132 41.0496 20.4285 41.0496ZM20.4285 46.4514C19.415 46.4514 18.5971 45.6091 18.5971 44.5653C18.5971 43.5216 19.415 42.6793 20.4285 42.6793C21.442 42.6793 22.2599 43.5216 22.2599 44.5653C22.2421 45.6091 21.4242 46.4514 20.4285 46.4514Z" fill="white"/>
<path d="M43.721 41.0496C41.8362 41.0496 40.2893 42.6243 40.2893 44.5837C40.2893 46.543 41.8184 48.1178 43.721 48.1178C45.6235 48.1178 47.1526 46.543 47.1526 44.5837C47.1526 42.6243 45.6057 41.0496 43.721 41.0496ZM43.721 46.4514C42.7075 46.4514 41.8896 45.6091 41.8896 44.5653C41.8896 43.5216 42.7075 42.6793 43.721 42.6793C44.7345 42.6793 45.5524 43.5216 45.5524 44.5653C45.5524 45.6091 44.7345 46.4514 43.721 46.4514Z" fill="white"/>
</g>
<defs>
<clipPath id="clip0_171:775">
<rect width="62.2143" height="64.0714" fill="white" transform="translate(0.478516 1.47864)"/>
</clipPath>
</defs>
</svg>
